<svg xmlns="http://www.w3.org/2000/svg" viewBox="0 0 100 100" width="100" height="100" preserveAspectRatio="xMidYMid meet" style="width: 100%; height: 100%; transform: translate3d(0px, 0px, 0px); content-visibility: visible;"><defs><clipPath id="__lottie_element_290"><rect width="100" height="100" x="0" y="0"></rect></clipPath></defs><g clip-path="url(#__lottie_element_290)"><g transform="matrix(1.4700000286102295,0,0,1.4700000286102295,50,50)" opacity="1" style="display: block;"><g opacity="1" transform="matrix(1,0,0,1,0,0)"><path fill="rgb(0,0,0)" fill-opacity="1" d=" M14.111000061035156,28.45199966430664 C14.111000061035156,28.45199966430664 -7.5,-19.75 -7.5,-19.75 C-7.5,-19.75 -21.25,-15.25 -21.25,-15.25 C-21.25,-15.25 -19.625,-7.5 -17.125,-9.125 C-14.625,-10.75 -4.25,-13 -4.25,-13"></path><path stroke-linecap="butt" stroke-linejoin="miter" fill-opacity="0" stroke-miterlimit="4" stroke="rgb(0,0,0)" stroke-opacity="1" stroke-width="2" d=" M14.111000061035156,28.45199966430664 C14.111000061035156,28.45199966430664 -7.5,-19.75 -7.5,-19.75 C-7.5,-19.75 -21.25,-15.25 -21.25,-15.25 C-21.25,-15.25 -19.625,-7.5 -17.125,-9.125 C-14.625,-10.75 -4.25,-13 -4.25,-13"></path></g></g></g></svg>