<svg xmlns="http://www.w3.org/2000/svg" viewBox="0 0 1080 1080" width="1080" height="1080" preserveAspectRatio="xMidYMid meet" style="width: 100%; height: 100%; transform: translate3d(0px, 0px, 0px); content-visibility: visible;"><defs><clipPath id="__lottie_element_346"><rect width="1080" height="1080" x="0" y="0"></rect></clipPath></defs><g clip-path="url(#__lottie_element_346)"><g transform="matrix(1,0,0,1,540,1100)" opacity="1" style="display: block;"><g opacity="1" transform="matrix(1,0,0,1,8.75,-287.61700439453125)"><path fill="rgb(52,108,238)" fill-opacity="1" d=" M364.75,-68.38300323486328 C364.75,-68.38300323486328 364.75,68.38300323486328 364.75,68.38300323486328 C364.75,68.38300323486328 -364.75,68.38300323486328 -364.75,68.38300323486328 C-364.75,68.38300323486328 -364.75,-68.38300323486328 -364.75,-68.38300323486328 C-364.75,-68.38300323486328 364.75,-68.38300323486328 364.75,-68.38300323486328z"></path><path stroke-linecap="butt" stroke-linejoin="miter" fill-opacity="0" stroke-miterlimit="4" stroke="rgb(255,255,255)" stroke-opacity="1" stroke-width="5" d=" M364.75,-68.38300323486328 C364.75,-68.38300323486328 364.75,68.38300323486328 364.75,68.38300323486328 C364.75,68.38300323486328 -364.75,68.38300323486328 -364.75,68.38300323486328 C-364.75,68.38300323486328 -364.75,-68.38300323486328 -364.75,-68.38300323486328 C-364.75,-68.38300323486328 364.75,-68.38300323486328 364.75,-68.38300323486328z"></path></g></g><g transform="matrix(1,0,0,1,540,960)" opacity="1" style="display: block;"><g opacity="1" transform="matrix(1,0,0,1,8.75,-287.61700439453125)"><path fill="rgb(234,110,235)" fill-opacity="1" d=" M364.75,-68.38300323486328 C364.75,-68.38300323486328 364.75,68.38300323486328 364.75,68.38300323486328 C364.75,68.38300323486328 -364.75,68.38300323486328 -364.75,68.38300323486328 C-364.75,68.38300323486328 -364.75,-68.38300323486328 -364.75,-68.38300323486328 C-364.75,-68.38300323486328 364.75,-68.38300323486328 364.75,-68.38300323486328z"></path><path stroke-linecap="butt" stroke-linejoin="miter" fill-opacity="0" stroke-miterlimit="4" stroke="rgb(255,255,255)" stroke-opacity="1" stroke-width="5" d=" M364.75,-68.38300323486328 C364.75,-68.38300323486328 364.75,68.38300323486328 364.75,68.38300323486328 C364.75,68.38300323486328 -364.75,68.38300323486328 -364.75,68.38300323486328 C-364.75,68.38300323486328 -364.75,-68.38300323486328 -364.75,-68.38300323486328 C-364.75,-68.38300323486328 364.75,-68.38300323486328 364.75,-68.38300323486328z"></path></g></g><g transform="matrix(1,0,0,1,540,820)" opacity="1" style="display: block;"><g opacity="1" transform="matrix(1,0,0,1,8.75,-287.61700439453125)"><path fill="rgb(246,78,78)" fill-opacity="1" d=" M364.75,-68.38300323486328 C364.75,-68.38300323486328 364.75,68.38300323486328 364.75,68.38300323486328 C364.75,68.38300323486328 -364.75,68.38300323486328 -364.75,68.38300323486328 C-364.75,68.38300323486328 -364.75,-68.38300323486328 -364.75,-68.38300323486328 C-364.75,-68.38300323486328 364.75,-68.38300323486328 364.75,-68.38300323486328z"></path><path stroke-linecap="butt" stroke-linejoin="miter" fill-opacity="0" stroke-miterlimit="4" stroke="rgb(255,255,255)" stroke-opacity="1" stroke-width="5" d=" M364.75,-68.38300323486328 C364.75,-68.38300323486328 364.75,68.38300323486328 364.75,68.38300323486328 C364.75,68.38300323486328 -364.75,68.38300323486328 -364.75,68.38300323486328 C-364.75,68.38300323486328 -364.75,-68.38300323486328 -364.75,-68.38300323486328 C-364.75,-68.38300323486328 364.75,-68.38300323486328 364.75,-68.38300323486328z"></path></g></g><g transform="matrix(1,0,0,1,540,680)" opacity="1" style="display: block;"><g opacity="1" transform="matrix(1,0,0,1,8.75,-287.61700439453125)"><path fill="rgb(230,227,90)" fill-opacity="1" d=" M364.75,-68.38300323486328 C364.75,-68.38300323486328 364.75,68.38300323486328 364.75,68.38300323486328 C364.75,68.38300323486328 -364.75,68.38300323486328 -364.75,68.38300323486328 C-364.75,68.38300323486328 -364.75,-68.38300323486328 -364.75,-68.38300323486328 C-364.75,-68.38300323486328 364.75,-68.38300323486328 364.75,-68.38300323486328z"></path><path stroke-linecap="butt" stroke-linejoin="miter" fill-opacity="0" stroke-miterlimit="4" stroke="rgb(255,255,255)" stroke-opacity="1" stroke-width="5" d=" M364.75,-68.38300323486328 C364.75,-68.38300323486328 364.75,68.38300323486328 364.75,68.38300323486328 C364.75,68.38300323486328 -364.75,68.38300323486328 -364.75,68.38300323486328 C-364.75,68.38300323486328 -364.75,-68.38300323486328 -364.75,-68.38300323486328 C-364.75,-68.38300323486328 364.75,-68.38300323486328 364.75,-68.38300323486328z"></path></g></g><g transform="matrix(1,0,0,1,540,540)" opacity="1" style="display: block;"><g opacity="1" transform="matrix(1,0,0,1,8.75,-287.61700439453125)"><path fill="rgb(110,227,235)" fill-opacity="1" d=" M364.75,-68.38300323486328 C364.75,-68.38300323486328 364.75,68.38300323486328 364.75,68.38300323486328 C364.75,68.38300323486328 -364.75,68.38300323486328 -364.75,68.38300323486328 C-364.75,68.38300323486328 -364.75,-68.38300323486328 -364.75,-68.38300323486328 C-364.75,-68.38300323486328 364.75,-68.38300323486328 364.75,-68.38300323486328z"></path><path stroke-linecap="butt" stroke-linejoin="miter" fill-opacity="0" stroke-miterlimit="4" stroke="rgb(255,255,255)" stroke-opacity="1" stroke-width="5" d=" M364.75,-68.38300323486328 C364.75,-68.38300323486328 364.75,68.38300323486328 364.75,68.38300323486328 C364.75,68.38300323486328 -364.75,68.38300323486328 -364.75,68.38300323486328 C-364.75,68.38300323486328 -364.75,-68.38300323486328 -364.75,-68.38300323486328 C-364.75,-68.38300323486328 364.75,-68.38300323486328 364.75,-68.38300323486328z"></path></g></g><g transform="matrix(1,0,0,1,252,268)" opacity="1" style="display: block;"><g opacity="1" transform="matrix(1,0,0,1,0,0)"><path fill="rgb(255,255,255)" fill-opacity="1" d=" M229.38499450683594,-5.764999866485596 C227.26400756835938,-5.764999866485596 225.85000610351562,-7.014999866485596 225.85000610351562,-9.517000198364258 C225.85000610351562,-9.517000198364258 225.85000610351562,-19.4689998626709 225.85000610351562,-19.4689998626709 C225.85000610351562,-22.569000244140625 227.427001953125,-23.43899917602539 229.3300018310547,-23.43899917602539 C231.1790008544922,-23.43899917602539 233.68099975585938,-21.808000564575195 233.68099975585938,-18.70800018310547 C233.68099975585938,-18.70800018310547 233.68099975585938,-11.039999961853027 233.68099975585938,-11.039999961853027 C233.68099975585938,-7.830999851226807 231.50599670410156,-5.764999866485596 229.38499450683594,-5.764999866485596z M225.9040069580078,0.652999997138977 C229.11300659179688,0.652999997138977 232.10400390625,-1.3600000143051147 233.7899932861328,-4.35099983215332 C233.7899932861328,-4.35099983215332 234.0070037841797,-4.35099983215332 234.0070037841797,-4.35099983215332 C234.0070037841797,-4.35099983215332 234.11599731445312,0 234.11599731445312,0 C234.11599731445312,0 242.00100708007812,0 242.00100708007812,0 C242.00100708007812,0 242.00100708007812,-38.775001525878906 242.00100708007812,-38.775001525878906 C242.00100708007812,-38.775001525878906 233.62600708007812,-38.775001525878906 233.62600708007812,-38.775001525878906 C233.62600708007812,-38.775001525878906 233.62600708007812,-25.777000427246094 233.62600708007812,-25.777000427246094 C233.62600708007812,-25.777000427246094 233.57200622558594,-25.777000427246094 233.57200622558594,-25.777000427246094 C231.88600158691406,-28.33300018310547 229.0590057373047,-29.475000381469727 226.5570068359375,-29.475000381469727 C221.17300415039062,-29.475000381469727 217.5290069580078,-25.28700065612793 217.5290069580078,-20.121000289916992 C217.5290069580078,-20.121000289916992 217.5290069580078,-8.86400032043457 217.5290069580078,-8.86400032043457 C217.5290069580078,-3.6429998874664307 220.031005859375,0.652999997138977 225.9040069580078,0.652999997138977z"></path></g><g opacity="1" transform="matrix(1,0,0,1,0,0)"><path fill="rgb(255,255,255)" fill-opacity="1" d=" M188.64300537109375,0 C188.64300537109375,0 197.01800537109375,0 197.01800537109375,0 C197.01800537109375,0 197.01800537109375,-17.836999893188477 197.01800537109375,-17.836999893188477 C197.01800537109375,-20.990999221801758 199.13900756835938,-23.003999710083008 201.20599365234375,-23.003999710083008 C203.97900390625,-23.003999710083008 204.74099731445312,-21.208999633789062 204.74099731445312,-19.034000396728516 C204.74099731445312,-19.034000396728516 204.74099731445312,0 204.74099731445312,0 C204.74099731445312,0 213.06100463867188,0 213.06100463867188,0 C213.06100463867188,0 213.06100463867188,-21.481000900268555 213.06100463867188,-21.481000900268555 C213.06100463867188,-26.483999252319336 209.2550048828125,-29.475000381469727 205.33900451660156,-29.475000381469727 C201.8040008544922,-29.475000381469727 198.81300354003906,-27.788999557495117 196.80099487304688,-24.635000228881836 C196.80099487304688,-24.635000228881836 196.69200134277344,-24.635000228881836 196.69200134277344,-24.635000228881836 C196.69200134277344,-24.635000228881836 196.69200134277344,-28.822999954223633 196.69200134277344,-28.822999954223633 C196.69200134277344,-28.822999954223633 188.64300537109375,-28.822999954223633 188.64300537109375,-28.822999954223633 C188.64300537109375,-28.822999954223633 188.64300537109375,0 188.64300537109375,0z"></path></g><g opacity="1" transform="matrix(1,0,0,1,0,0)"><path fill="rgb(255,255,255)" fill-opacity="1" d=" M171.11500549316406,-5.383999824523926 C169.15699768066406,-5.383999824523926 167.7429962158203,-6.635000228881836 167.7429962158203,-8.972999572753906 C167.7429962158203,-11.800999641418457 170.02699279785156,-12.725000381469727 172.5290069580078,-12.725000381469727 C172.5290069580078,-12.725000381469727 175.0850067138672,-12.725000381469727 175.0850067138672,-12.725000381469727 C175.0850067138672,-12.725000381469727 175.0850067138672,-9.734000205993652 175.0850067138672,-9.734000205993652 C175.0850067138672,-6.906000137329102 173.072998046875,-5.383999824523926 171.11500549316406,-5.383999824523926z M167.5260009765625,0.5979999899864197 C169.64700317382812,0.5979999899864197 173.67100524902344,-0.16300000250339508 175.46600341796875,-4.242000102996826 C175.46600341796875,-4.242000102996826 175.73800659179688,-4.242000102996826 175.73800659179688,-4.242000102996826 C175.9010009765625,-1.5230000019073486 176.06399536132812,-0.2720000147819519 176.06399536132812,0 C176.06399536132812,0 183.78599548339844,0 183.78599548339844,0 C183.78599548339844,-0.7070000171661377 183.4600067138672,-3.9700000286102295 183.4600067138672,-6.689000129699707 C183.4600067138672,-6.689000129699707 183.4600067138672,-20.121000289916992 183.4600067138672,-20.121000289916992 C183.4600067138672,-26.591999053955078 178.13099670410156,-29.475000381469727 172.0399932861328,-29.475000381469727 C165.4600067138672,-29.475000381469727 160.1300048828125,-26.320999145507812 160.1300048828125,-20.77400016784668 C160.1300048828125,-20.77400016784668 160.1300048828125,-19.250999450683594 160.1300048828125,-19.250999450683594 C160.1300048828125,-19.250999450683594 167.5800018310547,-19.250999450683594 167.5800018310547,-19.250999450683594 C167.5800018310547,-19.250999450683594 167.5800018310547,-20.39299964904785 167.5800018310547,-20.39299964904785 C167.5800018310547,-22.132999420166016 168.7220001220703,-23.711000442504883 171.2779998779297,-23.711000442504883 C173.77999877929688,-23.711000442504883 175.0850067138672,-22.459999084472656 175.0850067138672,-20.447999954223633 C175.0850067138672,-20.447999954223633 175.0850067138672,-17.29400062561035 175.0850067138672,-17.29400062561035 C175.0850067138672,-17.29400062561035 172.093994140625,-17.29400062561035 172.093994140625,-17.29400062561035 C166.5469970703125,-17.29400062561035 159.36900329589844,-14.899999618530273 159.36900329589844,-7.7220001220703125 C159.36900329589844,-2.065999984741211 163.06700134277344,0.5979999899864197 167.5260009765625,0.5979999899864197z"></path></g><g opacity="1" transform="matrix(1,0,0,1,0,0)"><path fill="rgb(255,255,255)" fill-opacity="1" d=" M151.65199279785156,0.5440000295639038 C153.33799743652344,0.5440000295639038 155.0240020751953,0.21799999475479126 156.6009979248047,-0.32600000500679016 C156.6009979248047,-0.32600000500679016 156.6009979248047,-6.743000030517578 156.6009979248047,-6.743000030517578 C155.947998046875,-6.633999824523926 155.1320037841797,-6.579999923706055 154.64300537109375,-6.579999923706055 C152.74000549316406,-6.579999923706055 152.35899353027344,-7.505000114440918 152.35899353027344,-8.755999565124512 C152.35899353027344,-8.755999565124512 152.35899353027344,-38.775001525878906 152.35899353027344,-38.775001525878906 C152.35899353027344,-38.775001525878906 143.92999267578125,-38.775001525878906 143.92999267578125,-38.775001525878906 C143.92999267578125,-38.775001525878906 143.92999267578125,-6.36299991607666 143.92999267578125,-6.36299991607666 C143.92999267578125,-1.9040000438690186 146.86599731445312,0.5440000295639038 151.65199279785156,0.5440000295639038z"></path></g><g opacity="1" transform="matrix(1,0,0,1,0,0)"><path fill="rgb(255,255,255)" fill-opacity="1" d=" M126.19100189208984,-5.764999866485596 C124.06999969482422,-5.764999866485596 122.65599822998047,-7.014999866485596 122.65599822998047,-9.517000198364258 C122.65599822998047,-9.517000198364258 122.65599822998047,-19.4689998626709 122.65599822998047,-19.4689998626709 C122.65599822998047,-22.569000244140625 124.23300170898438,-23.43899917602539 126.13600158691406,-23.43899917602539 C127.98500061035156,-23.43899917602539 130.48699951171875,-21.808000564575195 130.48699951171875,-18.70800018310547 C130.48699951171875,-18.70800018310547 130.48699951171875,-11.039999961853027 130.48699951171875,-11.039999961853027 C130.48699951171875,-7.830999851226807 128.31199645996094,-5.764999866485596 126.19100189208984,-5.764999866485596z M122.70999908447266,0.652999997138977 C125.91899871826172,0.652999997138977 128.91000366210938,-1.3600000143051147 130.5959930419922,-4.35099983215332 C130.5959930419922,-4.35099983215332 130.81300354003906,-4.35099983215332 130.81300354003906,-4.35099983215332 C130.81300354003906,-4.35099983215332 130.9219970703125,0 130.9219970703125,0 C130.9219970703125,0 138.8070068359375,0 138.8070068359375,0 C138.8070068359375,0 138.8070068359375,-38.775001525878906 138.8070068359375,-38.775001525878906 C138.8070068359375,-38.775001525878906 130.4320068359375,-38.775001525878906 130.4320068359375,-38.775001525878906 C130.4320068359375,-38.775001525878906 130.4320068359375,-25.777000427246094 130.4320068359375,-25.777000427246094 C130.4320068359375,-25.777000427246094 130.3780059814453,-25.777000427246094 130.3780059814453,-25.777000427246094 C128.69200134277344,-28.33300018310547 125.86499786376953,-29.475000381469727 123.36299896240234,-29.475000381469727 C117.97899627685547,-29.475000381469727 114.33499908447266,-25.28700065612793 114.33499908447266,-20.121000289916992 C114.33499908447266,-20.121000289916992 114.33499908447266,-8.86400032043457 114.33499908447266,-8.86400032043457 C114.33499908447266,-3.6429998874664307 116.83699798583984,0.652999997138977 122.70999908447266,0.652999997138977z"></path></g><g opacity="1" transform="matrix(1,0,0,1,0,0)"><path fill="rgb(255,255,255)" fill-opacity="1" d=" M85.4489974975586,0 C85.4489974975586,0 93.8239974975586,0 93.8239974975586,0 C93.8239974975586,0 93.8239974975586,-17.836999893188477 93.8239974975586,-17.836999893188477 C93.8239974975586,-20.990999221801758 95.94499969482422,-23.003999710083008 98.01200103759766,-23.003999710083008 C100.78500366210938,-23.003999710083008 101.5469970703125,-21.208999633789062 101.5469970703125,-19.034000396728516 C101.5469970703125,-19.034000396728516 101.5469970703125,0 101.5469970703125,0 C101.5469970703125,0 109.86699676513672,0 109.86699676513672,0 C109.86699676513672,0 109.86699676513672,-21.481000900268555 109.86699676513672,-21.481000900268555 C109.86699676513672,-26.483999252319336 106.06099700927734,-29.475000381469727 102.1449966430664,-29.475000381469727 C98.61000061035156,-29.475000381469727 95.61900329589844,-27.788999557495117 93.60700225830078,-24.635000228881836 C93.60700225830078,-24.635000228881836 93.49800109863281,-24.635000228881836 93.49800109863281,-24.635000228881836 C93.49800109863281,-24.635000228881836 93.49800109863281,-28.822999954223633 93.49800109863281,-28.822999954223633 C93.49800109863281,-28.822999954223633 85.4489974975586,-28.822999954223633 85.4489974975586,-28.822999954223633 C85.4489974975586,-28.822999954223633 85.4489974975586,0 85.4489974975586,0z"></path></g><g opacity="1" transform="matrix(1,0,0,1,0,0)"><path fill="rgb(255,255,255)" fill-opacity="1" d=" M68.57599639892578,-5.60099983215332 C67.76000213623047,-5.60099983215332 67.0530014038086,-5.710000038146973 66.50900268554688,-5.98199987411499 C66.50900268554688,-5.98199987411499 72.3280029296875,-17.51099967956543 72.3280029296875,-17.51099967956543 C72.3280029296875,-17.51099967956543 72.3280029296875,-9.788999557495117 72.3280029296875,-9.788999557495117 C72.3280029296875,-7.451000213623047 71.29499816894531,-5.60099983215332 68.57599639892578,-5.60099983215332z M64.71399688720703,-18.81599998474121 C64.71399688720703,-21.26300048828125 65.802001953125,-23.22100067138672 68.46700286865234,-23.22100067138672 C69.5,-23.22100067138672 70.31500244140625,-22.895000457763672 70.96800231933594,-22.35099983215332 C70.96800231933594,-22.35099983215332 64.71399688720703,-9.843000411987305 64.71399688720703,-9.843000411987305 C64.71399688720703,-9.843000411987305 64.71399688720703,-18.81599998474121 64.71399688720703,-18.81599998474121z M61.50600051879883,4.02400016784668 C61.50600051879883,4.02400016784668 63.518001556396484,0 63.518001556396484,0 C65.09500122070312,0.4350000023841858 66.78099822998047,0.652999997138977 68.52100372314453,0.652999997138977 C74.66600036621094,0.652999997138977 80.7030029296875,-2.447000026702881 80.7030029296875,-10.168999671936035 C80.7030029296875,-10.168999671936035 80.7030029296875,-18.599000930786133 80.7030029296875,-18.599000930786133 C80.7030029296875,-22.459999084472656 79.23500061035156,-25.125 77.00499725341797,-26.864999771118164 C77.00499725341797,-26.864999771118164 79.01699829101562,-30.834999084472656 79.01699829101562,-30.834999084472656 C79.01699829101562,-30.834999084472656 75.97200012207031,-32.356998443603516 75.97200012207031,-32.356998443603516 C75.97200012207031,-32.356998443603516 74.01399993896484,-28.496000289916992 74.01399993896484,-28.496000289916992 C72.27400207519531,-29.14900016784668 70.37000274658203,-29.475000381469727 68.41200256347656,-29.475000381469727 C62.04899978637695,-29.475000381469727 56.28499984741211,-25.940000534057617 56.28499984741211,-18.381000518798828 C56.28499984741211,-18.381000518798828 56.28499984741211,-10.114999771118164 56.28499984741211,-10.114999771118164 C56.28499984741211,-5.873000144958496 57.97100067138672,-3.0999999046325684 60.472999572753906,-1.4140000343322754 C60.472999572753906,-1.4140000343322754 58.51499938964844,2.555999994277954 58.51499938964844,2.555999994277954 C58.51499938964844,2.555999994277954 61.50600051879883,4.02400016784668 61.50600051879883,4.02400016784668z"></path></g><g opacity="1" transform="matrix(1,0,0,1,0,0)"><path fill="rgb(255,255,255)" fill-opacity="1" d=" M35.930999755859375,0 C35.930999755859375,0 44.305999755859375,0 44.305999755859375,0 C44.305999755859375,0 44.305999755859375,-16.586999893188477 44.305999755859375,-16.586999893188477 C44.305999755859375,-20.82900047302246 48.54800033569336,-21.481000900268555 50.6150016784668,-21.481000900268555 C51.2130012512207,-21.481000900268555 52.08300018310547,-21.481000900268555 53.49700164794922,-21.31800079345703 C53.49700164794922,-21.31800079345703 53.49700164794922,-28.930999755859375 53.49700164794922,-28.930999755859375 C52.680999755859375,-29.14900016784668 51.48500061035156,-29.202999114990234 50.832000732421875,-29.202999114990234 C47.51499938964844,-29.202999114990234 45.611000061035156,-27.299999237060547 44.143001556396484,-24.363000869750977 C44.143001556396484,-24.363000869750977 44.0890007019043,-24.363000869750977 44.0890007019043,-24.363000869750977 C44.0890007019043,-24.363000869750977 44.0890007019043,-28.822999954223633 44.0890007019043,-28.822999954223633 C44.0890007019043,-28.822999954223633 35.930999755859375,-28.822999954223633 35.930999755859375,-28.822999954223633 C35.930999755859375,-28.822999954223633 35.930999755859375,0 35.930999755859375,0z"></path></g><g opacity="1" transform="matrix(1,0,0,1,0,0)"><path fill="rgb(255,255,255)" fill-opacity="1" d=" M17.184999465942383,0.652999997138977 C24.417999267578125,0.652999997138977 30.99799919128418,-2.937000036239624 30.99799919128418,-10.604999542236328 C30.99799919128418,-10.604999542236328 30.99799919128418,-21.26300048828125 30.99799919128418,-21.26300048828125 C30.99799919128418,-21.26300048828125 16.531999588012695,-21.26300048828125 16.531999588012695,-21.26300048828125 C16.531999588012695,-21.26300048828125 16.531999588012695,-14.845999717712402 16.531999588012695,-14.845999717712402 C16.531999588012695,-14.845999717712402 22.569000244140625,-14.845999717712402 22.569000244140625,-14.845999717712402 C22.569000244140625,-14.845999717712402 22.569000244140625,-11.312000274658203 22.569000244140625,-11.312000274658203 C22.569000244140625,-8.267000198364258 21.04599952697754,-6.4710001945495605 17.29400062561035,-6.4710001945495605 C13.649999618530273,-6.4710001945495605 11.637999534606934,-8.755999565124512 11.637999534606934,-12.236000061035156 C11.637999534606934,-12.236000061035156 11.637999534606934,-26.64699935913086 11.637999534606934,-26.64699935913086 C11.637999534606934,-30.072999954223633 13.866999626159668,-32.249000549316406 17.402000427246094,-32.249000549316406 C20.44700050354004,-32.249000549316406 22.677000045776367,-30.39900016784668 22.677000045776367,-27.354000091552734 C22.677000045776367,-27.354000091552734 22.677000045776367,-25.832000732421875 22.677000045776367,-25.832000732421875 C22.677000045776367,-25.832000732421875 30.944000244140625,-25.832000732421875 30.944000244140625,-25.832000732421875 C30.944000244140625,-25.832000732421875 30.944000244140625,-28.496000289916992 30.944000244140625,-28.496000289916992 C30.944000244140625,-36.16400146484375 24.253999710083008,-39.426998138427734 17.1299991607666,-39.426998138427734 C9.352999687194824,-39.426998138427734 2.609999895095825,-35.07600021362305 2.609999895095825,-26.809999465942383 C2.609999895095825,-26.809999465942383 2.609999895095825,-12.072999954223633 2.609999895095825,-12.072999954223633 C2.609999895095825,-3.0999999046325684 9.407999992370605,0.652999997138977 17.184999465942383,0.652999997138977z"></path></g></g><g transform="matrix(1,0,0,1,252,407.5)" opacity="1" style="display: block;"><g opacity="1" transform="matrix(1,0,0,1,0,0)"><path fill="rgb(255,255,255)" fill-opacity="1" d=" M309.34698486328125,0.652999997138977 C315.8179931640625,0.652999997138977 320.8219909667969,-3.0450000762939453 320.8219909667969,-8.86400032043457 C320.8219909667969,-12.833999633789062 318.7019958496094,-15.770999908447266 313.2090148925781,-17.51099967956543 C313.2090148925781,-17.51099967956543 309.7279968261719,-18.70800018310547 309.7279968261719,-18.70800018310547 C307.9880065917969,-19.361000061035156 306.8999938964844,-19.740999221801758 306.8999938964844,-21.31800079345703 C306.8999938964844,-22.67799949645996 308.0419921875,-23.43899917602539 309.8370056152344,-23.43899917602539 C311.8489990234375,-23.43899917602539 313.6440124511719,-22.67799949645996 315.9280090332031,-20.882999420166016 C315.9280090332031,-20.882999420166016 320.114990234375,-26.211999893188477 320.114990234375,-26.211999893188477 C317.1239929199219,-28.549999237060547 314.0780029296875,-29.530000686645508 310.0539855957031,-29.530000686645508 C302.8760070800781,-29.530000686645508 299.2869873046875,-24.851999282836914 299.2869873046875,-20.121000289916992 C299.2869873046875,-16.04199981689453 301.6789855957031,-12.942999839782715 306.1929931640625,-11.583000183105469 C306.1929931640625,-11.583000183105469 308.69500732421875,-10.767999649047852 308.69500732421875,-10.767999649047852 C310.92498779296875,-10.060999870300293 312.6650085449219,-9.62600040435791 312.6650085449219,-7.830999851226807 C312.6650085449219,-6.254000186920166 311.30499267578125,-5.493000030517578 309.1300048828125,-5.493000030517578 C306.62799072265625,-5.493000030517578 303.8550109863281,-7.395999908447266 301.7879943847656,-8.918999671936035 C301.7879943847656,-8.918999671936035 297.6549987792969,-3.6440000534057617 297.6549987792969,-3.6440000534057617 C300.864013671875,-0.49000000953674316 304.6700134277344,0.652999997138977 309.34698486328125,0.652999997138977z"></path></g><g opacity="1" transform="matrix(1,0,0,1,0,0)"><path fill="rgb(255,255,255)" fill-opacity="1" d=" M277.906005859375,0.652999997138977 C281.4410095214844,0.652999997138977 284.75799560546875,-1.5770000219345093 286.281005859375,-4.459000110626221 C286.281005859375,-4.459000110626221 286.3890075683594,-4.459000110626221 286.3890075683594,-4.459000110626221 C286.3890075683594,-4.459000110626221 286.6610107421875,0 286.6610107421875,0 C286.6610107421875,0 294.43798828125,0 294.43798828125,0 C294.43798828125,0 294.43798828125,-28.822999954223633 294.43798828125,-28.822999954223633 C294.43798828125,-28.822999954223633 286.06298828125,-28.822999954223633 286.06298828125,-28.822999954223633 C286.06298828125,-28.822999954223633 286.06298828125,-11.093999862670898 286.06298828125,-11.093999862670898 C286.06298828125,-7.940000057220459 284.0509948730469,-5.818999767303467 281.7669982910156,-5.818999767303467 C278.9389953613281,-5.818999767303467 278.34100341796875,-7.7769999504089355 278.34100341796875,-9.95199966430664 C278.34100341796875,-9.95199966430664 278.34100341796875,-28.822999954223633 278.34100341796875,-28.822999954223633 C278.34100341796875,-28.822999954223633 270.0199890136719,-28.822999954223633 270.0199890136719,-28.822999954223633 C270.0199890136719,-28.822999954223633 270.0199890136719,-7.3420000076293945 270.0199890136719,-7.3420000076293945 C270.0199890136719,-2.066999912261963 273.989990234375,0.652999997138977 277.906005859375,0.652999997138977z"></path></g><g opacity="1" transform="matrix(1,0,0,1,0,0)"><path fill="rgb(255,255,255)" fill-opacity="1" d=" M235.78700256347656,0 C235.78700256347656,0 244.81399536132812,0 244.81399536132812,0 C244.81399536132812,0 244.81399536132812,-15.770999908447266 244.81399536132812,-15.770999908447266 C244.81399536132812,-15.770999908447266 255.63699340820312,-15.770999908447266 255.63699340820312,-15.770999908447266 C255.63699340820312,-15.770999908447266 255.63699340820312,0 255.63699340820312,0 C255.63699340820312,0 264.66400146484375,0 264.66400146484375,0 C264.66400146484375,0 264.66400146484375,-38.775001525878906 264.66400146484375,-38.775001525878906 C264.66400146484375,-38.775001525878906 255.63699340820312,-38.775001525878906 255.63699340820312,-38.775001525878906 C255.63699340820312,-38.775001525878906 255.63699340820312,-23.6560001373291 255.63699340820312,-23.6560001373291 C255.63699340820312,-23.6560001373291 244.81399536132812,-23.6560001373291 244.81399536132812,-23.6560001373291 C244.81399536132812,-23.6560001373291 244.81399536132812,-38.775001525878906 244.81399536132812,-38.775001525878906 C244.81399536132812,-38.775001525878906 235.78700256347656,-38.775001525878906 235.78700256347656,-38.775001525878906 C235.78700256347656,-38.775001525878906 235.78700256347656,0 235.78700256347656,0z"></path></g><g opacity="1" transform="matrix(1,0,0,1,0,0)"><path fill="rgb(255,255,255)" fill-opacity="1" d=" M206.302001953125,-17.1299991607666 C206.302001953125,-17.1299991607666 206.302001953125,-19.577999114990234 206.302001953125,-19.577999114990234 C206.302001953125,-21.753000259399414 207.60699462890625,-23.54800033569336 210.0540008544922,-23.54800033569336 C212.66400146484375,-23.54800033569336 213.86099243164062,-21.753000259399414 213.86099243164062,-19.523000717163086 C213.86099243164062,-19.523000717163086 213.86099243164062,-17.1299991607666 213.86099243164062,-17.1299991607666 C213.86099243164062,-17.1299991607666 206.302001953125,-17.1299991607666 206.302001953125,-17.1299991607666z M210.3260040283203,0.652999997138977 C214.13299560546875,0.652999997138977 218.04800415039062,-0.16300000250339508 221.1479949951172,-1.9579999446868896 C221.1479949951172,-1.9579999446868896 219.4080047607422,-7.449999809265137 219.4080047607422,-7.449999809265137 C217.77699279785156,-6.8520002365112305 214.7310028076172,-5.818999767303467 211.68600463867188,-5.818999767303467 C208.74899291992188,-5.818999767303467 206.302001953125,-6.797999858856201 206.302001953125,-10.060999870300293 C206.302001953125,-10.060999870300293 206.302001953125,-12.182000160217285 206.302001953125,-12.182000160217285 C206.302001953125,-12.182000160217285 221.80099487304688,-12.182000160217285 221.80099487304688,-12.182000160217285 C221.80099487304688,-12.182000160217285 221.80099487304688,-18.70800018310547 221.80099487304688,-18.70800018310547 C221.80099487304688,-25.559999465942383 216.96099853515625,-29.475000381469727 210.10899353027344,-29.475000381469727 C203.69200134277344,-29.475000381469727 197.927001953125,-25.66900062561035 197.927001953125,-17.729000091552734 C197.927001953125,-17.729000091552734 197.927001953125,-10.440999984741211 197.927001953125,-10.440999984741211 C197.927001953125,-2.7190001010894775 203.6909942626953,0.652999997138977 210.3260040283203,0.652999997138977z"></path></g><g opacity="1" transform="matrix(1,0,0,1,0,0)"><path fill="rgb(255,255,255)" fill-opacity="1" d=" M180.56900024414062,-5.764999866485596 C178.447998046875,-5.764999866485596 177.03399658203125,-7.014999866485596 177.03399658203125,-9.517000198364258 C177.03399658203125,-9.517000198364258 177.03399658203125,-19.4689998626709 177.03399658203125,-19.4689998626709 C177.03399658203125,-22.569000244140625 178.61099243164062,-23.43899917602539 180.51400756835938,-23.43899917602539 C182.36300659179688,-23.43899917602539 184.86500549316406,-21.808000564575195 184.86500549316406,-18.70800018310547 C184.86500549316406,-18.70800018310547 184.86500549316406,-11.039999961853027 184.86500549316406,-11.039999961853027 C184.86500549316406,-7.830999851226807 182.69000244140625,-5.764999866485596 180.56900024414062,-5.764999866485596z M177.08799743652344,0.652999997138977 C180.2969970703125,0.652999997138977 183.28799438476562,-1.3600000143051147 184.9739990234375,-4.35099983215332 C184.9739990234375,-4.35099983215332 185.1909942626953,-4.35099983215332 185.1909942626953,-4.35099983215332 C185.1909942626953,-4.35099983215332 185.3000030517578,0 185.3000030517578,0 C185.3000030517578,0 193.18499755859375,0 193.18499755859375,0 C193.18499755859375,0 193.18499755859375,-38.775001525878906 193.18499755859375,-38.775001525878906 C193.18499755859375,-38.775001525878906 184.80999755859375,-38.775001525878906 184.80999755859375,-38.775001525878906 C184.80999755859375,-38.775001525878906 184.80999755859375,-25.777000427246094 184.80999755859375,-25.777000427246094 C184.80999755859375,-25.777000427246094 184.75599670410156,-25.777000427246094 184.75599670410156,-25.777000427246094 C183.07000732421875,-28.33300018310547 180.2429962158203,-29.475000381469727 177.74099731445312,-29.475000381469727 C172.35699462890625,-29.475000381469727 168.71299743652344,-25.28700065612793 168.71299743652344,-20.121000289916992 C168.71299743652344,-20.121000289916992 168.71299743652344,-8.86400032043457 168.71299743652344,-8.86400032043457 C168.71299743652344,-3.6429998874664307 171.21499633789062,0.652999997138977 177.08799743652344,0.652999997138977z"></path></g><g opacity="1" transform="matrix(1,0,0,1,0,0)"><path fill="rgb(255,255,255)" fill-opacity="1" d=" M155.54100036621094,-32.08599853515625 C155.54100036621094,-32.08599853515625 163.91600036621094,-32.08599853515625 163.91600036621094,-32.08599853515625 C163.91600036621094,-32.08599853515625 163.91600036621094,-39.91699981689453 163.91600036621094,-39.91699981689453 C163.91600036621094,-39.91699981689453 155.54100036621094,-39.91699981689453 155.54100036621094,-39.91699981689453 C155.54100036621094,-39.91699981689453 155.54100036621094,-32.08599853515625 155.54100036621094,-32.08599853515625z M155.54100036621094,0 C155.54100036621094,0 163.91600036621094,0 163.91600036621094,0 C163.91600036621094,0 163.91600036621094,-28.822999954223633 163.91600036621094,-28.822999954223633 C163.91600036621094,-28.822999954223633 155.54100036621094,-28.822999954223633 155.54100036621094,-28.822999954223633 C155.54100036621094,-28.822999954223633 155.54100036621094,0 155.54100036621094,0z"></path></g><g opacity="1" transform="matrix(1,0,0,1,0,0)"><path fill="rgb(255,255,255)" fill-opacity="1" d=" M135.71600341796875,0.05400000140070915 C135.71600341796875,0.05400000140070915 143.6020050048828,0.05400000140070915 143.6020050048828,0.05400000140070915 C143.6020050048828,0.05400000140070915 152.52000427246094,-28.822999954223633 152.52000427246094,-28.822999954223633 C152.52000427246094,-28.822999954223633 144.8520050048828,-28.822999954223633 144.8520050048828,-28.822999954223633 C144.8520050048828,-28.822999954223633 140.22999572753906,-11.366000175476074 140.22999572753906,-11.366000175476074 C140.22999572753906,-11.366000175476074 140.12100219726562,-11.366000175476074 140.12100219726562,-11.366000175476074 C140.12100219726562,-11.366000175476074 135.60699462890625,-28.822999954223633 135.60699462890625,-28.822999954223633 C135.60699462890625,-28.822999954223633 126.68900299072266,-28.822999954223633 126.68900299072266,-28.822999954223633 C126.68900299072266,-28.822999954223633 135.71600341796875,0.05400000140070915 135.71600341796875,0.05400000140070915z"></path></g><g opacity="1" transform="matrix(1,0,0,1,0,0)"><path fill="rgb(255,255,255)" fill-opacity="1" d=" M94.68499755859375,0 C94.68499755859375,0 103.71199798583984,0 103.71199798583984,0 C103.71199798583984,0 103.71199798583984,-15.770999908447266 103.71199798583984,-15.770999908447266 C103.71199798583984,-15.770999908447266 114.53399658203125,-15.770999908447266 114.53399658203125,-15.770999908447266 C114.53399658203125,-15.770999908447266 114.53399658203125,0 114.53399658203125,0 C114.53399658203125,0 123.56199645996094,0 123.56199645996094,0 C123.56199645996094,0 123.56199645996094,-38.775001525878906 123.56199645996094,-38.775001525878906 C123.56199645996094,-38.775001525878906 114.53399658203125,-38.775001525878906 114.53399658203125,-38.775001525878906 C114.53399658203125,-38.775001525878906 114.53399658203125,-23.6560001373291 114.53399658203125,-23.6560001373291 C114.53399658203125,-23.6560001373291 103.71199798583984,-23.6560001373291 103.71199798583984,-23.6560001373291 C103.71199798583984,-23.6560001373291 103.71199798583984,-38.775001525878906 103.71199798583984,-38.775001525878906 C103.71199798583984,-38.775001525878906 94.68499755859375,-38.775001525878906 94.68499755859375,-38.775001525878906 C94.68499755859375,-38.775001525878906 94.68499755859375,0 94.68499755859375,0z"></path></g><g opacity="1" transform="matrix(1,0,0,1,0,0)"><path fill="rgb(255,255,255)" fill-opacity="1" d=" M74.72200012207031,0.5440000295639038 C76.68000030517578,0.5440000295639038 78.52799987792969,0.2720000147819519 80.59500122070312,-0.38100001215934753 C80.59500122070312,-0.38100001215934753 80.59500122070312,-7.014999866485596 80.59500122070312,-7.014999866485596 C79.6709976196289,-6.796999931335449 78.8010025024414,-6.689000129699707 77.71299743652344,-6.689000129699707 C75.75499725341797,-6.689000129699707 75.21199798583984,-7.668000221252441 75.21199798583984,-9.081999778747559 C75.21199798583984,-9.081999778747559 75.21199798583984,-21.753000259399414 75.21199798583984,-21.753000259399414 C75.21199798583984,-21.753000259399414 81.41100311279297,-21.753000259399414 81.41100311279297,-21.753000259399414 C81.41100311279297,-21.753000259399414 81.41100311279297,-28.441999435424805 81.41100311279297,-28.441999435424805 C81.41100311279297,-28.441999435424805 75.21199798583984,-28.441999435424805 75.21199798583984,-28.441999435424805 C75.21199798583984,-28.441999435424805 75.21199798583984,-36.05500030517578 75.21199798583984,-36.05500030517578 C75.21199798583984,-36.05500030517578 66.78199768066406,-36.05500030517578 66.78199768066406,-36.05500030517578 C66.78199768066406,-36.05500030517578 66.78199768066406,-28.441999435424805 66.78199768066406,-28.441999435424805 C66.78199768066406,-28.441999435424805 62.974998474121094,-28.441999435424805 62.974998474121094,-28.441999435424805 C62.974998474121094,-28.441999435424805 62.974998474121094,-21.753000259399414 62.974998474121094,-21.753000259399414 C62.974998474121094,-21.753000259399414 66.78199768066406,-21.753000259399414 66.78199768066406,-21.753000259399414 C66.78199768066406,-21.753000259399414 66.78199768066406,-6.579999923706055 66.78199768066406,-6.579999923706055 C66.78199768066406,-0.9789999723434448 70.86100006103516,0.5440000295639038 74.72200012207031,0.5440000295639038z"></path></g><g opacity="1" transform="matrix(1,0,0,1,0,0)"><path fill="rgb(255,255,255)" fill-opacity="1" d=" M44.301998138427734,-17.1299991607666 C44.301998138427734,-17.1299991607666 44.301998138427734,-19.577999114990234 44.301998138427734,-19.577999114990234 C44.301998138427734,-21.753000259399414 45.606998443603516,-23.54800033569336 48.05400085449219,-23.54800033569336 C50.66400146484375,-23.54800033569336 51.861000061035156,-21.753000259399414 51.861000061035156,-19.523000717163086 C51.861000061035156,-19.523000717163086 51.861000061035156,-17.1299991607666 51.861000061035156,-17.1299991607666 C51.861000061035156,-17.1299991607666 44.301998138427734,-17.1299991607666 44.301998138427734,-17.1299991607666z M48.32600021362305,0.652999997138977 C52.132999420166016,0.652999997138977 56.04800033569336,-0.16300000250339508 59.14799880981445,-1.9579999446868896 C59.14799880981445,-1.9579999446868896 57.40800094604492,-7.449999809265137 57.40800094604492,-7.449999809265137 C55.777000427246094,-6.8520002365112305 52.73099899291992,-5.818999767303467 49.68600082397461,-5.818999767303467 C46.749000549316406,-5.818999767303467 44.301998138427734,-6.797999858856201 44.301998138427734,-10.060999870300293 C44.301998138427734,-10.060999870300293 44.301998138427734,-12.182000160217285 44.301998138427734,-12.182000160217285 C44.301998138427734,-12.182000160217285 59.80099868774414,-12.182000160217285 59.80099868774414,-12.182000160217285 C59.80099868774414,-12.182000160217285 59.80099868774414,-18.70800018310547 59.80099868774414,-18.70800018310547 C59.80099868774414,-25.559999465942383 54.96099853515625,-29.475000381469727 48.10900115966797,-29.475000381469727 C41.69200134277344,-29.475000381469727 35.926998138427734,-25.66900062561035 35.926998138427734,-17.729000091552734 C35.926998138427734,-17.729000091552734 35.926998138427734,-10.440999984741211 35.926998138427734,-10.440999984741211 C35.926998138427734,-2.7190001010894775 41.691001892089844,0.652999997138977 48.32600021362305,0.652999997138977z"></path></g><g opacity="1" transform="matrix(1,0,0,1,0,0)"><path fill="rgb(255,255,255)" fill-opacity="1" d=" M12.289999961853027,-7.232999801635742 C12.289999961853027,-7.232999801635742 12.289999961853027,-31.54199981689453 12.289999961853027,-31.54199981689453 C12.289999961853027,-31.54199981689453 17.02199935913086,-31.54199981689453 17.02199935913086,-31.54199981689453 C20.666000366210938,-31.54199981689453 22.569000244140625,-29.312000274658203 22.569000244140625,-26.211999893188477 C22.569000244140625,-26.211999893188477 22.569000244140625,-12.616999626159668 22.569000244140625,-12.616999626159668 C22.569000244140625,-10.006999969482422 20.990999221801758,-7.232999801635742 17.1299991607666,-7.232999801635742 C17.1299991607666,-7.232999801635742 12.289999961853027,-7.232999801635742 12.289999961853027,-7.232999801635742z M3.263000011444092,0 C3.263000011444092,0 18.05500030517578,0 18.05500030517578,0 C25.61400032043457,0 31.650999069213867,-3.753000020980835 31.650999069213867,-12.345000267028809 C31.650999069213867,-12.345000267028809 31.650999069213867,-27.136999130249023 31.650999069213867,-27.136999130249023 C31.650999069213867,-35.18600082397461 25.614999771118164,-38.775001525878906 18.000999450683594,-38.775001525878906 C18.000999450683594,-38.775001525878906 3.263000011444092,-38.775001525878906 3.263000011444092,-38.775001525878906 C3.263000011444092,-38.775001525878906 3.263000011444092,0 3.263000011444092,0z"></path></g></g><g transform="matrix(1,0,0,1,252,547)" opacity="1" style="display: block;"><g opacity="1" transform="matrix(1,0,0,1,0,0)"><path fill="rgb(255,255,255)" fill-opacity="1" d=" M160.61700439453125,0 C160.61700439453125,0 168.99200439453125,0 168.99200439453125,0 C168.99200439453125,0 168.99200439453125,-17.836999893188477 168.99200439453125,-17.836999893188477 C168.99200439453125,-20.990999221801758 171.11300659179688,-23.003999710083008 173.17999267578125,-23.003999710083008 C175.9530029296875,-23.003999710083008 176.71499633789062,-21.208999633789062 176.71499633789062,-19.034000396728516 C176.71499633789062,-19.034000396728516 176.71499633789062,0 176.71499633789062,0 C176.71499633789062,0 185.03500366210938,0 185.03500366210938,0 C185.03500366210938,0 185.03500366210938,-21.481000900268555 185.03500366210938,-21.481000900268555 C185.03500366210938,-26.483999252319336 181.22900390625,-29.475000381469727 177.31300354003906,-29.475000381469727 C173.7779998779297,-29.475000381469727 170.78700256347656,-27.788999557495117 168.77499389648438,-24.635000228881836 C168.77499389648438,-24.635000228881836 168.66600036621094,-24.635000228881836 168.66600036621094,-24.635000228881836 C168.66600036621094,-24.635000228881836 168.66600036621094,-28.822999954223633 168.66600036621094,-28.822999954223633 C168.66600036621094,-28.822999954223633 160.61700439453125,-28.822999954223633 160.61700439453125,-28.822999954223633 C160.61700439453125,-28.822999954223633 160.61700439453125,0 160.61700439453125,0z"></path></g><g opacity="1" transform="matrix(1,0,0,1,0,0)"><path fill="rgb(255,255,255)" fill-opacity="1" d=" M146.8470001220703,-32.08599853515625 C146.8470001220703,-32.08599853515625 155.2220001220703,-32.08599853515625 155.2220001220703,-32.08599853515625 C155.2220001220703,-32.08599853515625 155.2220001220703,-39.91699981689453 155.2220001220703,-39.91699981689453 C155.2220001220703,-39.91699981689453 146.8470001220703,-39.91699981689453 146.8470001220703,-39.91699981689453 C146.8470001220703,-39.91699981689453 146.8470001220703,-32.08599853515625 146.8470001220703,-32.08599853515625z M146.8470001220703,0 C146.8470001220703,0 155.2220001220703,0 155.2220001220703,0 C155.2220001220703,0 155.2220001220703,-28.822999954223633 155.2220001220703,-28.822999954223633 C155.2220001220703,-28.822999954223633 146.8470001220703,-28.822999954223633 146.8470001220703,-28.822999954223633 C146.8470001220703,-28.822999954223633 146.8470001220703,0 146.8470001220703,0z"></path></g><g opacity="1" transform="matrix(1,0,0,1,0,0)"><path fill="rgb(255,255,255)" fill-opacity="1" d=" M138.15199279785156,0.5440000295639038 C139.83799743652344,0.5440000295639038 141.5240020751953,0.21799999475479126 143.1009979248047,-0.32600000500679016 C143.1009979248047,-0.32600000500679016 143.1009979248047,-6.743000030517578 143.1009979248047,-6.743000030517578 C142.447998046875,-6.633999824523926 141.6320037841797,-6.579999923706055 141.14300537109375,-6.579999923706055 C139.24000549316406,-6.579999923706055 138.85899353027344,-7.505000114440918 138.85899353027344,-8.755999565124512 C138.85899353027344,-8.755999565124512 138.85899353027344,-38.775001525878906 138.85899353027344,-38.775001525878906 C138.85899353027344,-38.775001525878906 130.42999267578125,-38.775001525878906 130.42999267578125,-38.775001525878906 C130.42999267578125,-38.775001525878906 130.42999267578125,-6.36299991607666 130.42999267578125,-6.36299991607666 C130.42999267578125,-1.9040000438690186 133.36599731445312,0.5440000295639038 138.15199279785156,0.5440000295639038z"></path></g><g opacity="1" transform="matrix(1,0,0,1,0,0)"><path fill="rgb(255,255,255)" fill-opacity="1" d=" M85.17900085449219,0 C85.17900085449219,0 93.55400085449219,0 93.55400085449219,0 C93.55400085449219,0 93.55400085449219,-17.836999893188477 93.55400085449219,-17.836999893188477 C93.55400085449219,-20.990999221801758 95.67500305175781,-23.003999710083008 97.74199676513672,-23.003999710083008 C100.46099853515625,-23.003999710083008 101.2229995727539,-21.263999938964844 101.2770004272461,-19.19700050354004 C101.2770004272461,-19.19700050354004 101.2770004272461,0 101.2770004272461,0 C101.2770004272461,0 109.59700012207031,0 109.59700012207031,0 C109.59700012207031,0 109.59700012207031,-17.945999145507812 109.59700012207031,-17.945999145507812 C109.6510009765625,-21.04599952697754 111.77200317382812,-23.003999710083008 113.89299774169922,-23.003999710083008 C116.50299835205078,-23.003999710083008 117.3740005493164,-21.26300048828125 117.3740005493164,-19.08799934387207 C117.3740005493164,-19.08799934387207 117.3740005493164,0 117.3740005493164,0 C117.3740005493164,0 125.69400024414062,0 125.69400024414062,0 C125.69400024414062,0 125.69400024414062,-21.53499984741211 125.69400024414062,-21.53499984741211 C125.69400024414062,-26.593000411987305 121.77899932861328,-29.475000381469727 117.91799926757812,-29.475000381469727 C114.38300323486328,-29.475000381469727 111.33799743652344,-27.8439998626709 109.27100372314453,-24.635000228881836 C109.27100372314453,-24.635000228881836 109.10800170898438,-24.635000228881836 109.10800170898438,-24.635000228881836 C108.07499694824219,-27.625999450683594 105.08399963378906,-29.475000381469727 101.875,-29.475000381469727 C98.33999633789062,-29.475000381469727 95.18499755859375,-27.735000610351562 93.28199768066406,-24.472000122070312 C93.28199768066406,-24.472000122070312 93.17400360107422,-24.472000122070312 93.17400360107422,-24.472000122070312 C93.17400360107422,-24.472000122070312 93.17400360107422,-28.822999954223633 93.17400360107422,-28.822999954223633 C93.17400360107422,-28.822999954223633 85.17900085449219,-28.822999954223633 85.17900085449219,-28.822999954223633 C85.17900085449219,-28.822999954223633 85.17900085449219,0 85.17900085449219,0z"></path></g><g opacity="1" transform="matrix(1,0,0,1,0,0)"><path fill="rgb(255,255,255)" fill-opacity="1" d=" M65.09200286865234,-17.1299991607666 C65.09200286865234,-17.1299991607666 65.09200286865234,-19.577999114990234 65.09200286865234,-19.577999114990234 C65.09200286865234,-21.753000259399414 66.39700317382812,-23.54800033569336 68.84400177001953,-23.54800033569336 C71.4540023803711,-23.54800033569336 72.6510009765625,-21.753000259399414 72.6510009765625,-19.523000717163086 C72.6510009765625,-19.523000717163086 72.6510009765625,-17.1299991607666 72.6510009765625,-17.1299991607666 C72.6510009765625,-17.1299991607666 65.09200286865234,-17.1299991607666 65.09200286865234,-17.1299991607666z M69.11599731445312,0.652999997138977 C72.9229965209961,0.652999997138977 76.83799743652344,-0.16300000250339508 79.93800354003906,-1.9579999446868896 C79.93800354003906,-1.9579999446868896 78.197998046875,-7.449999809265137 78.197998046875,-7.449999809265137 C76.56700134277344,-6.8520002365112305 73.52100372314453,-5.818999767303467 70.47599792480469,-5.818999767303467 C67.53900146484375,-5.818999767303467 65.09200286865234,-6.797999858856201 65.09200286865234,-10.060999870300293 C65.09200286865234,-10.060999870300293 65.09200286865234,-12.182000160217285 65.09200286865234,-12.182000160217285 C65.09200286865234,-12.182000160217285 80.59100341796875,-12.182000160217285 80.59100341796875,-12.182000160217285 C80.59100341796875,-12.182000160217285 80.59100341796875,-18.70800018310547 80.59100341796875,-18.70800018310547 C80.59100341796875,-25.559999465942383 75.7509994506836,-29.475000381469727 68.89900207519531,-29.475000381469727 C62.481998443603516,-29.475000381469727 56.71699905395508,-25.66900062561035 56.71699905395508,-17.729000091552734 C56.71699905395508,-17.729000091552734 56.71699905395508,-10.440999984741211 56.71699905395508,-10.440999984741211 C56.71699905395508,-2.7190001010894775 62.48099899291992,0.652999997138977 69.11599731445312,0.652999997138977z"></path></g><g opacity="1" transform="matrix(1,0,0,1,0,0)"><path fill="rgb(255,255,255)" fill-opacity="1" d=" M36.362998962402344,0 C36.362998962402344,0 44.737998962402344,0 44.737998962402344,0 C44.737998962402344,0 44.737998962402344,-16.586999893188477 44.737998962402344,-16.586999893188477 C44.737998962402344,-20.82900047302246 48.97999954223633,-21.481000900268555 51.047000885009766,-21.481000900268555 C51.64500045776367,-21.481000900268555 52.51499938964844,-21.481000900268555 53.92900085449219,-21.31800079345703 C53.92900085449219,-21.31800079345703 53.92900085449219,-28.930999755859375 53.92900085449219,-28.930999755859375 C53.112998962402344,-29.14900016784668 51.91699981689453,-29.202999114990234 51.263999938964844,-29.202999114990234 C47.946998596191406,-29.202999114990234 46.042999267578125,-27.299999237060547 44.57500076293945,-24.363000869750977 C44.57500076293945,-24.363000869750977 44.520999908447266,-24.363000869750977 44.520999908447266,-24.363000869750977 C44.520999908447266,-24.363000869750977 44.520999908447266,-28.822999954223633 44.520999908447266,-28.822999954223633 C44.520999908447266,-28.822999954223633 36.362998962402344,-28.822999954223633 36.362998962402344,-28.822999954223633 C36.362998962402344,-28.822999954223633 36.362998962402344,0 36.362998962402344,0z"></path></g><g opacity="1" transform="matrix(1,0,0,1,0,0)"><path fill="rgb(255,255,255)" fill-opacity="1" d=" M3.263000011444092,0 C3.263000011444092,0 12.289999961853027,0 12.289999961853027,0 C12.289999961853027,0 12.289999961853027,-11.475000381469727 12.289999961853027,-11.475000381469727 C12.289999961853027,-11.475000381469727 16.097000122070312,-16.75 16.097000122070312,-16.75 C16.097000122070312,-16.75 23.058000564575195,0 23.058000564575195,0 C23.058000564575195,0 32.84700012207031,0 32.84700012207031,0 C32.84700012207031,0 22.785999298095703,-23.54800033569336 22.785999298095703,-23.54800033569336 C22.785999298095703,-23.54800033569336 32.9010009765625,-38.775001525878906 32.9010009765625,-38.775001525878906 C32.9010009765625,-38.775001525878906 23.92799949645996,-38.775001525878906 23.92799949645996,-38.775001525878906 C23.92799949645996,-38.775001525878906 12.289999961853027,-20.937000274658203 12.289999961853027,-20.937000274658203 C12.289999961853027,-20.937000274658203 12.289999961853027,-38.775001525878906 12.289999961853027,-38.775001525878906 C12.289999961853027,-38.775001525878906 3.263000011444092,-38.775001525878906 3.263000011444092,-38.775001525878906 C3.263000011444092,-38.775001525878906 3.263000011444092,0 3.263000011444092,0z"></path></g></g><g transform="matrix(1,0,0,1,252,686.5)" opacity="1" style="display: block;"><g opacity="1" transform="matrix(1,0,0,1,0,0)"><path fill="rgb(255,255,255)" fill-opacity="1" d=" M334.6189880371094,0.652999997138977 C341.0899963378906,0.652999997138977 346.093994140625,-3.0450000762939453 346.093994140625,-8.86400032043457 C346.093994140625,-12.833999633789062 343.9739990234375,-15.770999908447266 338.4809875488281,-17.51099967956543 C338.4809875488281,-17.51099967956543 335,-18.70800018310547 335,-18.70800018310547 C333.260009765625,-19.361000061035156 332.1719970703125,-19.740999221801758 332.1719970703125,-21.31800079345703 C332.1719970703125,-22.67799949645996 333.3139953613281,-23.43899917602539 335.1090087890625,-23.43899917602539 C337.1210021972656,-23.43899917602539 338.9159851074219,-22.67799949645996 341.20001220703125,-20.882999420166016 C341.20001220703125,-20.882999420166016 345.3869934082031,-26.211999893188477 345.3869934082031,-26.211999893188477 C342.39599609375,-28.549999237060547 339.3500061035156,-29.530000686645508 335.32598876953125,-29.530000686645508 C328.14801025390625,-29.530000686645508 324.5589904785156,-24.851999282836914 324.5589904785156,-20.121000289916992 C324.5589904785156,-16.04199981689453 326.95098876953125,-12.942999839782715 331.4649963378906,-11.583000183105469 C331.4649963378906,-11.583000183105469 333.9670104980469,-10.767999649047852 333.9670104980469,-10.767999649047852 C336.1969909667969,-10.060999870300293 337.93701171875,-9.62600040435791 337.93701171875,-7.830999851226807 C337.93701171875,-6.254000186920166 336.5769958496094,-5.493000030517578 334.4020080566406,-5.493000030517578 C331.8999938964844,-5.493000030517578 329.12701416015625,-7.395999908447266 327.05999755859375,-8.918999671936035 C327.05999755859375,-8.918999671936035 322.927001953125,-3.6440000534057617 322.927001953125,-3.6440000534057617 C326.135986328125,-0.49000000953674316 329.9419860839844,0.652999997138977 334.6189880371094,0.652999997138977z"></path></g><g opacity="1" transform="matrix(1,0,0,1,0,0)"><path fill="rgb(255,255,255)" fill-opacity="1" d=" M304.7969970703125,0 C304.7969970703125,0 313.1719970703125,0 313.1719970703125,0 C313.1719970703125,0 313.1719970703125,-16.586999893188477 313.1719970703125,-16.586999893188477 C313.1719970703125,-20.82900047302246 317.41400146484375,-21.481000900268555 319.4809875488281,-21.481000900268555 C320.0790100097656,-21.481000900268555 320.9490051269531,-21.481000900268555 322.3630065917969,-21.31800079345703 C322.3630065917969,-21.31800079345703 322.3630065917969,-28.930999755859375 322.3630065917969,-28.930999755859375 C321.5469970703125,-29.14900016784668 320.35101318359375,-29.202999114990234 319.697998046875,-29.202999114990234 C316.3810119628906,-29.202999114990234 314.47698974609375,-27.299999237060547 313.0090026855469,-24.363000869750977 C313.0090026855469,-24.363000869750977 312.9549865722656,-24.363000869750977 312.9549865722656,-24.363000869750977 C312.9549865722656,-24.363000869750977 312.9549865722656,-28.822999954223633 312.9549865722656,-28.822999954223633 C312.9549865722656,-28.822999954223633 304.7969970703125,-28.822999954223633 304.7969970703125,-28.822999954223633 C304.7969970703125,-28.822999954223633 304.7969970703125,0 304.7969970703125,0z"></path></g><g opacity="1" transform="matrix(1,0,0,1,0,0)"><path fill="rgb(255,255,255)" fill-opacity="1" d=" M284.7099914550781,-17.1299991607666 C284.7099914550781,-17.1299991607666 284.7099914550781,-19.577999114990234 284.7099914550781,-19.577999114990234 C284.7099914550781,-21.753000259399414 286.0150146484375,-23.54800033569336 288.4620056152344,-23.54800033569336 C291.0719909667969,-23.54800033569336 292.2690124511719,-21.753000259399414 292.2690124511719,-19.523000717163086 C292.2690124511719,-19.523000717163086 292.2690124511719,-17.1299991607666 292.2690124511719,-17.1299991607666 C292.2690124511719,-17.1299991607666 284.7099914550781,-17.1299991607666 284.7099914550781,-17.1299991607666z M288.7340087890625,0.652999997138977 C292.5409851074219,0.652999997138977 296.45599365234375,-0.16300000250339508 299.5559997558594,-1.9579999446868896 C299.5559997558594,-1.9579999446868896 297.8160095214844,-7.449999809265137 297.8160095214844,-7.449999809265137 C296.18499755859375,-6.8520002365112305 293.1390075683594,-5.818999767303467 290.093994140625,-5.818999767303467 C287.1570129394531,-5.818999767303467 284.7099914550781,-6.797999858856201 284.7099914550781,-10.060999870300293 C284.7099914550781,-10.060999870300293 284.7099914550781,-12.182000160217285 284.7099914550781,-12.182000160217285 C284.7099914550781,-12.182000160217285 300.2090148925781,-12.182000160217285 300.2090148925781,-12.182000160217285 C300.2090148925781,-12.182000160217285 300.2090148925781,-18.70800018310547 300.2090148925781,-18.70800018310547 C300.2090148925781,-25.559999465942383 295.3689880371094,-29.475000381469727 288.5169982910156,-29.475000381469727 C282.1000061035156,-29.475000381469727 276.3349914550781,-25.66900062561035 276.3349914550781,-17.729000091552734 C276.3349914550781,-17.729000091552734 276.3349914550781,-10.440999984741211 276.3349914550781,-10.440999984741211 C276.3349914550781,-2.7190001010894775 282.0989990234375,0.652999997138977 288.7340087890625,0.652999997138977z"></path></g><g opacity="1" transform="matrix(1,0,0,1,0,0)"><path fill="rgb(255,255,255)" fill-opacity="1" d=" M260.3909912109375,-5.383999824523926 C258.4330139160156,-5.383999824523926 256.093994140625,-7.070000171661377 256.093994140625,-10.333000183105469 C256.093994140625,-10.333000183105469 256.093994140625,-17.51099967956543 256.093994140625,-17.51099967956543 C256.093994140625,-21.208999633789062 258.10699462890625,-23.058000564575195 260.2820129394531,-23.058000564575195 C262.6199951171875,-23.058000564575195 263.8710021972656,-21.753000259399414 263.8710021972656,-19.305999755859375 C263.8710021972656,-19.305999755859375 263.8710021972656,-9.244999885559082 263.8710021972656,-9.244999885559082 C263.8710021972656,-6.36299991607666 262.3489990234375,-5.383999824523926 260.3909912109375,-5.383999824523926z M247.718994140625,9.62600040435791 C247.718994140625,9.62600040435791 256.093994140625,9.62600040435791 256.093994140625,9.62600040435791 C256.093994140625,9.62600040435791 256.093994140625,-3.316999912261963 256.093994140625,-3.316999912261963 C256.093994140625,-3.316999912261963 256.2030029296875,-3.316999912261963 256.2030029296875,-3.316999912261963 C257.4540100097656,-0.6520000100135803 260.6629943847656,0.652999997138977 263.0010070800781,0.652999997138977 C268.6570129394531,0.652999997138977 272.1910095214844,-3.805999994277954 272.1910095214844,-9.027000427246094 C272.1910095214844,-9.027000427246094 272.1910095214844,-20.28499984741211 272.1910095214844,-20.28499984741211 C272.1910095214844,-25.506000518798828 269.635986328125,-29.530000686645508 263.8169860839844,-29.530000686645508 C261.0979919433594,-29.530000686645508 257.6709899902344,-27.68000030517578 255.93099975585938,-24.525999069213867 C255.93099975585938,-24.525999069213867 255.82200622558594,-24.525999069213867 255.82200622558594,-24.525999069213867 C255.82200622558594,-24.525999069213867 255.82200622558594,-28.822999954223633 255.82200622558594,-28.822999954223633 C255.82200622558594,-28.822999954223633 247.718994140625,-28.822999954223633 247.718994140625,-28.822999954223633 C247.718994140625,-28.822999954223633 247.718994140625,9.62600040435791 247.718994140625,9.62600040435791z"></path></g><g opacity="1" transform="matrix(1,0,0,1,0,0)"><path fill="rgb(255,255,255)" fill-opacity="1" d=" M230.1909942626953,-5.383999824523926 C228.23300170898438,-5.383999824523926 226.81900024414062,-6.635000228881836 226.81900024414062,-8.972999572753906 C226.81900024414062,-11.800999641418457 229.10299682617188,-12.725000381469727 231.60499572753906,-12.725000381469727 C231.60499572753906,-12.725000381469727 234.16099548339844,-12.725000381469727 234.16099548339844,-12.725000381469727 C234.16099548339844,-12.725000381469727 234.16099548339844,-9.734000205993652 234.16099548339844,-9.734000205993652 C234.16099548339844,-6.906000137329102 232.1490020751953,-5.383999824523926 230.1909942626953,-5.383999824523926z M226.6020050048828,0.5979999899864197 C228.72300720214844,0.5979999899864197 232.7469940185547,-0.16300000250339508 234.54200744628906,-4.242000102996826 C234.54200744628906,-4.242000102996826 234.81399536132812,-4.242000102996826 234.81399536132812,-4.242000102996826 C234.9770050048828,-1.5230000019073486 235.13999938964844,-0.2720000147819519 235.13999938964844,0 C235.13999938964844,0 242.86199951171875,0 242.86199951171875,0 C242.86199951171875,-0.7070000171661377 242.53599548339844,-3.9700000286102295 242.53599548339844,-6.689000129699707 C242.53599548339844,-6.689000129699707 242.53599548339844,-20.121000289916992 242.53599548339844,-20.121000289916992 C242.53599548339844,-26.591999053955078 237.20700073242188,-29.475000381469727 231.11599731445312,-29.475000381469727 C224.53599548339844,-29.475000381469727 219.20599365234375,-26.320999145507812 219.20599365234375,-20.77400016784668 C219.20599365234375,-20.77400016784668 219.20599365234375,-19.250999450683594 219.20599365234375,-19.250999450683594 C219.20599365234375,-19.250999450683594 226.656005859375,-19.250999450683594 226.656005859375,-19.250999450683594 C226.656005859375,-19.250999450683594 226.656005859375,-20.39299964904785 226.656005859375,-20.39299964904785 C226.656005859375,-22.132999420166016 227.79800415039062,-23.711000442504883 230.35400390625,-23.711000442504883 C232.8560028076172,-23.711000442504883 234.16099548339844,-22.459999084472656 234.16099548339844,-20.447999954223633 C234.16099548339844,-20.447999954223633 234.16099548339844,-17.29400062561035 234.16099548339844,-17.29400062561035 C234.16099548339844,-17.29400062561035 231.1699981689453,-17.29400062561035 231.1699981689453,-17.29400062561035 C225.6230010986328,-17.29400062561035 218.44500732421875,-14.899999618530273 218.44500732421875,-7.7220001220703125 C218.44500732421875,-2.065999984741211 222.14300537109375,0.5979999899864197 226.6020050048828,0.5979999899864197z"></path></g><g opacity="1" transform="matrix(1,0,0,1,0,0)"><path fill="rgb(255,255,255)" fill-opacity="1" d=" M197.34800720214844,-20.339000701904297 C197.34800720214844,-20.339000701904297 197.34800720214844,-31.759000778198242 197.34800720214844,-31.759000778198242 C197.34800720214844,-31.759000778198242 202.0800018310547,-31.759000778198242 202.0800018310547,-31.759000778198242 C205.28900146484375,-31.759000778198242 206.9739990234375,-29.42099952697754 206.9739990234375,-26.211999893188477 C206.9739990234375,-22.62299919128418 205.0709991455078,-20.339000701904297 201.69900512695312,-20.339000701904297 C201.69900512695312,-20.339000701904297 197.34800720214844,-20.339000701904297 197.34800720214844,-20.339000701904297z M188.3209991455078,0 C188.3209991455078,0 197.34800720214844,0 197.34800720214844,0 C197.34800720214844,0 197.34800720214844,-13.541000366210938 197.34800720214844,-13.541000366210938 C197.34800720214844,-13.541000366210938 203.3300018310547,-13.541000366210938 203.3300018310547,-13.541000366210938 C211.9770050048828,-13.541000366210938 215.72999572753906,-19.415000915527344 215.72999572753906,-26.593000411987305 C215.72999572753906,-33.39099884033203 211.86900329589844,-38.775001525878906 203.65699768066406,-38.775001525878906 C203.65699768066406,-38.775001525878906 188.3209991455078,-38.775001525878906 188.3209991455078,-38.775001525878906 C188.3209991455078,-38.775001525878906 188.3209991455078,0 188.3209991455078,0z"></path></g><g opacity="1" transform="matrix(1,0,0,1,0,0)"><path fill="rgb(255,255,255)" fill-opacity="1" d=" M149.43899536132812,0 C149.43899536132812,0 157.81399536132812,0 157.81399536132812,0 C157.81399536132812,0 157.81399536132812,-17.836999893188477 157.81399536132812,-17.836999893188477 C157.81399536132812,-20.990999221801758 159.93499755859375,-23.003999710083008 162.0019989013672,-23.003999710083008 C164.77499389648438,-23.003999710083008 165.53700256347656,-21.208999633789062 165.53700256347656,-19.034000396728516 C165.53700256347656,-19.034000396728516 165.53700256347656,0 165.53700256347656,0 C165.53700256347656,0 173.85699462890625,0 173.85699462890625,0 C173.85699462890625,0 173.85699462890625,-21.481000900268555 173.85699462890625,-21.481000900268555 C173.85699462890625,-26.483999252319336 170.05099487304688,-29.475000381469727 166.13499450683594,-29.475000381469727 C162.60000610351562,-29.475000381469727 159.60899353027344,-27.788999557495117 157.5970001220703,-24.635000228881836 C157.5970001220703,-24.635000228881836 157.48800659179688,-24.635000228881836 157.48800659179688,-24.635000228881836 C157.48800659179688,-24.635000228881836 157.48800659179688,-28.822999954223633 157.48800659179688,-28.822999954223633 C157.48800659179688,-28.822999954223633 149.43899536132812,-28.822999954223633 149.43899536132812,-28.822999954223633 C149.43899536132812,-28.822999954223633 149.43899536132812,0 149.43899536132812,0z"></path></g><g opacity="1" transform="matrix(1,0,0,1,0,0)"><path fill="rgb(255,255,255)" fill-opacity="1" d=" M135.66900634765625,-32.08599853515625 C135.66900634765625,-32.08599853515625 144.04400634765625,-32.08599853515625 144.04400634765625,-32.08599853515625 C144.04400634765625,-32.08599853515625 144.04400634765625,-39.91699981689453 144.04400634765625,-39.91699981689453 C144.04400634765625,-39.91699981689453 135.66900634765625,-39.91699981689453 135.66900634765625,-39.91699981689453 C135.66900634765625,-39.91699981689453 135.66900634765625,-32.08599853515625 135.66900634765625,-32.08599853515625z M135.66900634765625,0 C135.66900634765625,0 144.04400634765625,0 144.04400634765625,0 C144.04400634765625,0 144.04400634765625,-28.822999954223633 144.04400634765625,-28.822999954223633 C144.04400634765625,-28.822999954223633 135.66900634765625,-28.822999954223633 135.66900634765625,-28.822999954223633 C135.66900634765625,-28.822999954223633 135.66900634765625,0 135.66900634765625,0z"></path></g><g opacity="1" transform="matrix(1,0,0,1,0,0)"><path fill="rgb(255,255,255)" fill-opacity="1" d=" M115.58200073242188,-17.1299991607666 C115.58200073242188,-17.1299991607666 115.58200073242188,-19.577999114990234 115.58200073242188,-19.577999114990234 C115.58200073242188,-21.753000259399414 116.88700103759766,-23.54800033569336 119.33399963378906,-23.54800033569336 C121.94400024414062,-23.54800033569336 123.14099884033203,-21.753000259399414 123.14099884033203,-19.523000717163086 C123.14099884033203,-19.523000717163086 123.14099884033203,-17.1299991607666 123.14099884033203,-17.1299991607666 C123.14099884033203,-17.1299991607666 115.58200073242188,-17.1299991607666 115.58200073242188,-17.1299991607666z M119.60600280761719,0.652999997138977 C123.41300201416016,0.652999997138977 127.3280029296875,-0.16300000250339508 130.42799377441406,-1.9579999446868896 C130.42799377441406,-1.9579999446868896 128.68800354003906,-7.449999809265137 128.68800354003906,-7.449999809265137 C127.05699920654297,-6.8520002365112305 124.01100158691406,-5.818999767303467 120.96600341796875,-5.818999767303467 C118.02899932861328,-5.818999767303467 115.58200073242188,-6.797999858856201 115.58200073242188,-10.060999870300293 C115.58200073242188,-10.060999870300293 115.58200073242188,-12.182000160217285 115.58200073242188,-12.182000160217285 C115.58200073242188,-12.182000160217285 131.08099365234375,-12.182000160217285 131.08099365234375,-12.182000160217285 C131.08099365234375,-12.182000160217285 131.08099365234375,-18.70800018310547 131.08099365234375,-18.70800018310547 C131.08099365234375,-25.559999465942383 126.24099731445312,-29.475000381469727 119.38899993896484,-29.475000381469727 C112.97200012207031,-29.475000381469727 107.20700073242188,-25.66900062561035 107.20700073242188,-17.729000091552734 C107.20700073242188,-17.729000091552734 107.20700073242188,-10.440999984741211 107.20700073242188,-10.440999984741211 C107.20700073242188,-2.7190001010894775 112.97100067138672,0.652999997138977 119.60600280761719,0.652999997138977z"></path></g><g opacity="1" transform="matrix(1,0,0,1,0,0)"><path fill="rgb(255,255,255)" fill-opacity="1" d=" M97.23999786376953,0.5440000295639038 C99.197998046875,0.5440000295639038 101.0459976196289,0.2720000147819519 103.11299896240234,-0.38100001215934753 C103.11299896240234,-0.38100001215934753 103.11299896240234,-7.014999866485596 103.11299896240234,-7.014999866485596 C102.18900299072266,-6.796999931335449 101.31900024414062,-6.689000129699707 100.23100280761719,-6.689000129699707 C98.27300262451172,-6.689000129699707 97.72899627685547,-7.668000221252441 97.72899627685547,-9.081999778747559 C97.72899627685547,-9.081999778747559 97.72899627685547,-21.753000259399414 97.72899627685547,-21.753000259399414 C97.72899627685547,-21.753000259399414 103.92900085449219,-21.753000259399414 103.92900085449219,-21.753000259399414 C103.92900085449219,-21.753000259399414 103.92900085449219,-28.441999435424805 103.92900085449219,-28.441999435424805 C103.92900085449219,-28.441999435424805 97.72899627685547,-28.441999435424805 97.72899627685547,-28.441999435424805 C97.72899627685547,-28.441999435424805 97.72899627685547,-36.05500030517578 97.72899627685547,-36.05500030517578 C97.72899627685547,-36.05500030517578 89.30000305175781,-36.05500030517578 89.30000305175781,-36.05500030517578 C89.30000305175781,-36.05500030517578 89.30000305175781,-28.441999435424805 89.30000305175781,-28.441999435424805 C89.30000305175781,-28.441999435424805 85.49299621582031,-28.441999435424805 85.49299621582031,-28.441999435424805 C85.49299621582031,-28.441999435424805 85.49299621582031,-21.753000259399414 85.49299621582031,-21.753000259399414 C85.49299621582031,-21.753000259399414 89.30000305175781,-21.753000259399414 89.30000305175781,-21.753000259399414 C89.30000305175781,-21.753000259399414 89.30000305175781,-6.579999923706055 89.30000305175781,-6.579999923706055 C89.30000305175781,-0.9789999723434448 93.37899780273438,0.5440000295639038 97.23999786376953,0.5440000295639038z"></path></g><g opacity="1" transform="matrix(1,0,0,1,0,0)"><path fill="rgb(255,255,255)" fill-opacity="1" d=" M72.01699829101562,0.652999997138977 C78.48799896240234,0.652999997138977 83.49199676513672,-3.0450000762939453 83.49199676513672,-8.86400032043457 C83.49199676513672,-12.833999633789062 81.37200164794922,-15.770999908447266 75.87899780273438,-17.51099967956543 C75.87899780273438,-17.51099967956543 72.39800262451172,-18.70800018310547 72.39800262451172,-18.70800018310547 C70.65799713134766,-19.361000061035156 69.56999969482422,-19.740999221801758 69.56999969482422,-21.31800079345703 C69.56999969482422,-22.67799949645996 70.71199798583984,-23.43899917602539 72.50700378417969,-23.43899917602539 C74.51899719238281,-23.43899917602539 76.31400299072266,-22.67799949645996 78.5979995727539,-20.882999420166016 C78.5979995727539,-20.882999420166016 82.78500366210938,-26.211999893188477 82.78500366210938,-26.211999893188477 C79.79399871826172,-28.549999237060547 76.74800109863281,-29.530000686645508 72.7239990234375,-29.530000686645508 C65.5459976196289,-29.530000686645508 61.957000732421875,-24.851999282836914 61.957000732421875,-20.121000289916992 C61.957000732421875,-16.04199981689453 64.3489990234375,-12.942999839782715 68.86299896240234,-11.583000183105469 C68.86299896240234,-11.583000183105469 71.36499786376953,-10.767999649047852 71.36499786376953,-10.767999649047852 C73.59500122070312,-10.060999870300293 75.33499908447266,-9.62600040435791 75.33499908447266,-7.830999851226807 C75.33499908447266,-6.254000186920166 73.9749984741211,-5.493000030517578 71.80000305175781,-5.493000030517578 C69.2979965209961,-5.493000030517578 66.5250015258789,-7.395999908447266 64.45800018310547,-8.918999671936035 C64.45800018310547,-8.918999671936035 60.32500076293945,-3.6440000534057617 60.32500076293945,-3.6440000534057617 C63.534000396728516,-0.49000000953674316 67.33999633789062,0.652999997138977 72.01699829101562,0.652999997138977z"></path></g><g opacity="1" transform="matrix(1,0,0,1,0,0)"><path fill="rgb(255,255,255)" fill-opacity="1" d=" M45.79399871826172,-5.383999824523926 C43.83599853515625,-5.383999824523926 41.49800109863281,-7.070000171661377 41.49800109863281,-10.333000183105469 C41.49800109863281,-10.333000183105469 41.49800109863281,-17.51099967956543 41.49800109863281,-17.51099967956543 C41.49800109863281,-21.208999633789062 43.51100158691406,-23.058000564575195 45.68600082397461,-23.058000564575195 C48.02399826049805,-23.058000564575195 49.275001525878906,-21.753000259399414 49.275001525878906,-19.305999755859375 C49.275001525878906,-19.305999755859375 49.275001525878906,-9.244999885559082 49.275001525878906,-9.244999885559082 C49.275001525878906,-6.36299991607666 47.75199890136719,-5.383999824523926 45.79399871826172,-5.383999824523926z M33.12300109863281,9.62600040435791 C33.12300109863281,9.62600040435791 41.49800109863281,9.62600040435791 41.49800109863281,9.62600040435791 C41.49800109863281,9.62600040435791 41.49800109863281,-3.316999912261963 41.49800109863281,-3.316999912261963 C41.49800109863281,-3.316999912261963 41.606998443603516,-3.316999912261963 41.606998443603516,-3.316999912261963 C42.858001708984375,-0.6520000100135803 46.06700134277344,0.652999997138977 48.404998779296875,0.652999997138977 C54.06100082397461,0.652999997138977 57.595001220703125,-3.805999994277954 57.595001220703125,-9.027000427246094 C57.595001220703125,-9.027000427246094 57.595001220703125,-20.28499984741211 57.595001220703125,-20.28499984741211 C57.595001220703125,-25.506000518798828 55.040000915527344,-29.530000686645508 49.22100067138672,-29.530000686645508 C46.50199890136719,-29.530000686645508 43.07500076293945,-27.68000030517578 41.334999084472656,-24.525999069213867 C41.334999084472656,-24.525999069213867 41.22600173950195,-24.525999069213867 41.22600173950195,-24.525999069213867 C41.22600173950195,-24.525999069213867 41.22600173950195,-28.822999954223633 41.22600173950195,-28.822999954223633 C41.22600173950195,-28.822999954223633 33.12300109863281,-28.822999954223633 33.12300109863281,-28.822999954223633 C33.12300109863281,-28.822999954223633 33.12300109863281,9.62600040435791 33.12300109863281,9.62600040435791z"></path></g><g opacity="1" transform="matrix(1,0,0,1,0,0)"><path fill="rgb(255,255,255)" fill-opacity="1" d=" M3.263000011444092,0 C3.263000011444092,0 28.38800048828125,0 28.38800048828125,0 C28.38800048828125,0 28.38800048828125,-7.3420000076293945 28.38800048828125,-7.3420000076293945 C28.38800048828125,-7.3420000076293945 12.289999961853027,-7.3420000076293945 12.289999961853027,-7.3420000076293945 C12.289999961853027,-7.3420000076293945 12.289999961853027,-16.042999267578125 12.289999961853027,-16.042999267578125 C12.289999961853027,-16.042999267578125 25.016000747680664,-16.042999267578125 25.016000747680664,-16.042999267578125 C25.016000747680664,-16.042999267578125 25.016000747680664,-23.329999923706055 25.016000747680664,-23.329999923706055 C25.016000747680664,-23.329999923706055 12.289999961853027,-23.329999923706055 12.289999961853027,-23.329999923706055 C12.289999961853027,-23.329999923706055 12.289999961853027,-31.48699951171875 12.289999961853027,-31.48699951171875 C12.289999961853027,-31.48699951171875 28.33300018310547,-31.48699951171875 28.33300018310547,-31.48699951171875 C28.33300018310547,-31.48699951171875 28.33300018310547,-38.775001525878906 28.33300018310547,-38.775001525878906 C28.33300018310547,-38.775001525878906 3.263000011444092,-38.775001525878906 3.263000011444092,-38.775001525878906 C3.263000011444092,-38.775001525878906 3.263000011444092,0 3.263000011444092,0z"></path></g></g><g transform="matrix(1,0,0,1,252,826)" opacity="1" style="display: block;"><g opacity="1" transform="matrix(1,0,0,1,0,0)"><path fill="rgb(255,255,255)" fill-opacity="1" d=" M259.1960144042969,-5.60099983215332 C256.47698974609375,-5.60099983215332 255.33399963378906,-7.23199987411499 255.33399963378906,-9.734000205993652 C255.33399963378906,-9.734000205993652 255.33399963378906,-18.81599998474121 255.33399963378906,-18.81599998474121 C255.33399963378906,-21.26300048828125 256.4219970703125,-23.22100067138672 259.0870056152344,-23.22100067138672 C261.5889892578125,-23.22100067138672 262.947998046875,-21.426000595092773 262.947998046875,-18.979000091552734 C262.947998046875,-18.979000091552734 262.947998046875,-9.788999557495117 262.947998046875,-9.788999557495117 C262.947998046875,-7.451000213623047 261.9150085449219,-5.60099983215332 259.1960144042969,-5.60099983215332z M259.1409912109375,0.652999997138977 C265.2860107421875,0.652999997138977 271.322998046875,-2.447000026702881 271.322998046875,-10.168999671936035 C271.322998046875,-10.168999671936035 271.322998046875,-18.599000930786133 271.322998046875,-18.599000930786133 C271.322998046875,-26.43000030517578 265.3399963378906,-29.475000381469727 259.0320129394531,-29.475000381469727 C252.66900634765625,-29.475000381469727 246.90499877929688,-25.940000534057617 246.90499877929688,-18.381000518798828 C246.90499877929688,-18.381000518798828 246.90499877929688,-10.114999771118164 246.90499877929688,-10.114999771118164 C246.90499877929688,-2.2300000190734863 252.7779998779297,0.652999997138977 259.1409912109375,0.652999997138977z"></path></g><g opacity="1" transform="matrix(1,0,0,1,0,0)"><path fill="rgb(255,255,255)" fill-opacity="1" d=" M229.5469970703125,-7.177999973297119 C227.26300048828125,-7.177999973297119 226.01199340820312,-8.375 226.01199340820312,-11.093999862670898 C226.01199340820312,-11.093999862670898 226.01199340820312,-19.250999450683594 226.01199340820312,-19.250999450683594 C226.01199340820312,-22.187999725341797 227.20799255371094,-23.493000030517578 229.6009979248047,-23.493000030517578 C231.39599609375,-23.493000030517578 233.78799438476562,-21.97100067138672 233.78799438476562,-18.871000289916992 C233.78799438476562,-18.871000289916992 233.78799438476562,-12.39900016784668 233.78799438476562,-12.39900016784668 C233.78799438476562,-9.081999778747559 231.66799926757812,-7.177999973297119 229.5469970703125,-7.177999973297119z M229.0030059814453,10.223999977111816 C237.3780059814453,10.223999977111816 242.21800231933594,5.927999973297119 242.21800231933594,-2.121000051498413 C242.21800231933594,-2.121000051498413 242.21800231933594,-28.87700080871582 242.21800231933594,-28.87700080871582 C242.21800231933594,-28.87700080871582 234.71299743652344,-28.87700080871582 234.71299743652344,-28.87700080871582 C234.71299743652344,-28.87700080871582 234.4409942626953,-25.232999801635742 234.4409942626953,-25.232999801635742 C234.4409942626953,-25.232999801635742 234.38699340820312,-25.232999801635742 234.38699340820312,-25.232999801635742 C233.02699279785156,-27.788999557495117 229.76400756835938,-29.530000686645508 226.93600463867188,-29.530000686645508 C221.66099548339844,-29.530000686645508 217.6909942626953,-25.777000427246094 217.6909942626953,-20.447999954223633 C217.6909942626953,-20.447999954223633 217.6909942626953,-10.005999565124512 217.6909942626953,-10.005999565124512 C217.6909942626953,-4.840000152587891 220.572998046875,-0.9789999723434448 226.33799743652344,-0.9789999723434448 C229.43800354003906,-0.9789999723434448 232.42799377441406,-2.881999969482422 233.78799438476562,-6.035999774932861 C233.78799438476562,-6.035999774932861 233.84300231933594,-6.035999774932861 233.84300231933594,-6.035999774932861 C233.84300231933594,-6.035999774932861 233.84300231933594,-0.7609999775886536 233.84300231933594,-0.7609999775886536 C233.84300231933594,2.3389999866485596 232.1020050048828,3.697999954223633 228.51300048828125,3.697999954223633 C225.9029998779297,3.697999954223633 223.02099609375,2.937000036239624 220.5189971923828,1.9579999446868896 C220.5189971923828,1.9579999446868896 218.343994140625,8.211999893188477 218.343994140625,8.211999893188477 C221.2259979248047,9.463000297546387 225.14199829101562,10.223999977111816 229.0030059814453,10.223999977111816z"></path></g><g opacity="1" transform="matrix(1,0,0,1,0,0)"><path fill="rgb(255,255,255)" fill-opacity="1" d=" M197.33700561523438,0 C197.33700561523438,0 205.71200561523438,0 205.71200561523438,0 C205.71200561523438,0 205.71200561523438,-16.586999893188477 205.71200561523438,-16.586999893188477 C205.71200561523438,-20.82900047302246 209.95399475097656,-21.481000900268555 212.02099609375,-21.481000900268555 C212.61900329589844,-21.481000900268555 213.48899841308594,-21.481000900268555 214.9029998779297,-21.31800079345703 C214.9029998779297,-21.31800079345703 214.9029998779297,-28.930999755859375 214.9029998779297,-28.930999755859375 C214.08700561523438,-29.14900016784668 212.89100646972656,-29.202999114990234 212.23800659179688,-29.202999114990234 C208.92100524902344,-29.202999114990234 207.01699829101562,-27.299999237060547 205.5489959716797,-24.363000869750977 C205.5489959716797,-24.363000869750977 205.4949951171875,-24.363000869750977 205.4949951171875,-24.363000869750977 C205.4949951171875,-24.363000869750977 205.4949951171875,-28.822999954223633 205.4949951171875,-28.822999954223633 C205.4949951171875,-28.822999954223633 197.33700561523438,-28.822999954223633 197.33700561523438,-28.822999954223633 C197.33700561523438,-28.822999954223633 197.33700561523438,0 197.33700561523438,0z"></path></g><g opacity="1" transform="matrix(1,0,0,1,0,0)"><path fill="rgb(255,255,255)" fill-opacity="1" d=" M179.8090057373047,-5.383999824523926 C177.8509979248047,-5.383999824523926 176.43699645996094,-6.635000228881836 176.43699645996094,-8.972999572753906 C176.43699645996094,-11.800999641418457 178.7209930419922,-12.725000381469727 181.22300720214844,-12.725000381469727 C181.22300720214844,-12.725000381469727 183.7790069580078,-12.725000381469727 183.7790069580078,-12.725000381469727 C183.7790069580078,-12.725000381469727 183.7790069580078,-9.734000205993652 183.7790069580078,-9.734000205993652 C183.7790069580078,-6.906000137329102 181.76699829101562,-5.383999824523926 179.8090057373047,-5.383999824523926z M176.22000122070312,0.5979999899864197 C178.34100341796875,0.5979999899864197 182.36500549316406,-0.16300000250339508 184.16000366210938,-4.242000102996826 C184.16000366210938,-4.242000102996826 184.4320068359375,-4.242000102996826 184.4320068359375,-4.242000102996826 C184.59500122070312,-1.5230000019073486 184.75799560546875,-0.2720000147819519 184.75799560546875,0 C184.75799560546875,0 192.47999572753906,0 192.47999572753906,0 C192.47999572753906,-0.7070000171661377 192.1540069580078,-3.9700000286102295 192.1540069580078,-6.689000129699707 C192.1540069580078,-6.689000129699707 192.1540069580078,-20.121000289916992 192.1540069580078,-20.121000289916992 C192.1540069580078,-26.591999053955078 186.8249969482422,-29.475000381469727 180.73399353027344,-29.475000381469727 C174.1540069580078,-29.475000381469727 168.82400512695312,-26.320999145507812 168.82400512695312,-20.77400016784668 C168.82400512695312,-20.77400016784668 168.82400512695312,-19.250999450683594 168.82400512695312,-19.250999450683594 C168.82400512695312,-19.250999450683594 176.2740020751953,-19.250999450683594 176.2740020751953,-19.250999450683594 C176.2740020751953,-19.250999450683594 176.2740020751953,-20.39299964904785 176.2740020751953,-20.39299964904785 C176.2740020751953,-22.132999420166016 177.41600036621094,-23.711000442504883 179.9720001220703,-23.711000442504883 C182.4739990234375,-23.711000442504883 183.7790069580078,-22.459999084472656 183.7790069580078,-20.447999954223633 C183.7790069580078,-20.447999954223633 183.7790069580078,-17.29400062561035 183.7790069580078,-17.29400062561035 C183.7790069580078,-17.29400062561035 180.78799438476562,-17.29400062561035 180.78799438476562,-17.29400062561035 C175.24099731445312,-17.29400062561035 168.06300354003906,-14.899999618530273 168.06300354003906,-7.7220001220703125 C168.06300354003906,-2.065999984741211 171.76100158691406,0.5979999899864197 176.22000122070312,0.5979999899864197z"></path></g><g opacity="1" transform="matrix(1,0,0,1,0,0)"><path fill="rgb(255,255,255)" fill-opacity="1" d=" M139.7209930419922,0 C139.7209930419922,0 164.8459930419922,0 164.8459930419922,0 C164.8459930419922,0 164.8459930419922,-7.3420000076293945 164.8459930419922,-7.3420000076293945 C164.8459930419922,-7.3420000076293945 148.7480010986328,-7.3420000076293945 148.7480010986328,-7.3420000076293945 C148.7480010986328,-7.3420000076293945 148.7480010986328,-38.775001525878906 148.7480010986328,-38.775001525878906 C148.7480010986328,-38.775001525878906 139.7209930419922,-38.775001525878906 139.7209930419922,-38.775001525878906 C139.7209930419922,-38.775001525878906 139.7209930419922,0 139.7209930419922,0z"></path></g><g opacity="1" transform="matrix(1,0,0,1,0,0)"><path fill="rgb(255,255,255)" fill-opacity="1" d=" M112.79499816894531,-5.383999824523926 C110.83699798583984,-5.383999824523926 109.4229965209961,-6.635000228881836 109.4229965209961,-8.972999572753906 C109.4229965209961,-11.800999641418457 111.70700073242188,-12.725000381469727 114.20899963378906,-12.725000381469727 C114.20899963378906,-12.725000381469727 116.76499938964844,-12.725000381469727 116.76499938964844,-12.725000381469727 C116.76499938964844,-12.725000381469727 116.76499938964844,-9.734000205993652 116.76499938964844,-9.734000205993652 C116.76499938964844,-6.906000137329102 114.75299835205078,-5.383999824523926 112.79499816894531,-5.383999824523926z M109.20600128173828,0.5979999899864197 C111.3270034790039,0.5979999899864197 115.35099792480469,-0.16300000250339508 117.14600372314453,-4.242000102996826 C117.14600372314453,-4.242000102996826 117.41799926757812,-4.242000102996826 117.41799926757812,-4.242000102996826 C117.58100128173828,-1.5230000019073486 117.74400329589844,-0.2720000147819519 117.74400329589844,0 C117.74400329589844,0 125.46600341796875,0 125.46600341796875,0 C125.46600341796875,-0.7070000171661377 125.13999938964844,-3.9700000286102295 125.13999938964844,-6.689000129699707 C125.13999938964844,-6.689000129699707 125.13999938964844,-20.121000289916992 125.13999938964844,-20.121000289916992 C125.13999938964844,-26.591999053955078 119.81099700927734,-29.475000381469727 113.72000122070312,-29.475000381469727 C107.13999938964844,-29.475000381469727 101.80999755859375,-26.320999145507812 101.80999755859375,-20.77400016784668 C101.80999755859375,-20.77400016784668 101.80999755859375,-19.250999450683594 101.80999755859375,-19.250999450683594 C101.80999755859375,-19.250999450683594 109.26000213623047,-19.250999450683594 109.26000213623047,-19.250999450683594 C109.26000213623047,-19.250999450683594 109.26000213623047,-20.39299964904785 109.26000213623047,-20.39299964904785 C109.26000213623047,-22.132999420166016 110.4020004272461,-23.711000442504883 112.95800018310547,-23.711000442504883 C115.45999908447266,-23.711000442504883 116.76499938964844,-22.459999084472656 116.76499938964844,-20.447999954223633 C116.76499938964844,-20.447999954223633 116.76499938964844,-17.29400062561035 116.76499938964844,-17.29400062561035 C116.76499938964844,-17.29400062561035 113.77400207519531,-17.29400062561035 113.77400207519531,-17.29400062561035 C108.22699737548828,-17.29400062561035 101.04900360107422,-14.899999618530273 101.04900360107422,-7.7220001220703125 C101.04900360107422,-2.065999984741211 104.74700164794922,0.5979999899864197 109.20600128173828,0.5979999899864197z"></path></g><g opacity="1" transform="matrix(1,0,0,1,0,0)"><path fill="rgb(255,255,255)" fill-opacity="1" d=" M71.8949966430664,0 C71.8949966430664,0 80.2699966430664,0 80.2699966430664,0 C80.2699966430664,0 80.2699966430664,-16.586999893188477 80.2699966430664,-16.586999893188477 C80.2699966430664,-20.82900047302246 84.51200103759766,-21.481000900268555 86.5790023803711,-21.481000900268555 C87.177001953125,-21.481000900268555 88.0469970703125,-21.481000900268555 89.46099853515625,-21.31800079345703 C89.46099853515625,-21.31800079345703 89.46099853515625,-28.930999755859375 89.46099853515625,-28.930999755859375 C88.6449966430664,-29.14900016784668 87.4489974975586,-29.202999114990234 86.7959976196289,-29.202999114990234 C83.47899627685547,-29.202999114990234 81.57499694824219,-27.299999237060547 80.10700225830078,-24.363000869750977 C80.10700225830078,-24.363000869750977 80.0530014038086,-24.363000869750977 80.0530014038086,-24.363000869750977 C80.0530014038086,-24.363000869750977 80.0530014038086,-28.822999954223633 80.0530014038086,-28.822999954223633 C80.0530014038086,-28.822999954223633 71.8949966430664,-28.822999954223633 71.8949966430664,-28.822999954223633 C71.8949966430664,-28.822999954223633 71.8949966430664,0 71.8949966430664,0z"></path></g><g opacity="1" transform="matrix(1,0,0,1,0,0)"><path fill="rgb(255,255,255)" fill-opacity="1" d=" M54.367000579833984,-5.383999824523926 C52.409000396728516,-5.383999824523926 50.994998931884766,-6.635000228881836 50.994998931884766,-8.972999572753906 C50.994998931884766,-11.800999641418457 53.27899932861328,-12.725000381469727 55.78099822998047,-12.725000381469727 C55.78099822998047,-12.725000381469727 58.33700180053711,-12.725000381469727 58.33700180053711,-12.725000381469727 C58.33700180053711,-12.725000381469727 58.33700180053711,-9.734000205993652 58.33700180053711,-9.734000205993652 C58.33700180053711,-6.906000137329102 56.32500076293945,-5.383999824523926 54.367000579833984,-5.383999824523926z M50.77799987792969,0.5979999899864197 C52.89899826049805,0.5979999899864197 56.92300033569336,-0.16300000250339508 58.71799850463867,-4.242000102996826 C58.71799850463867,-4.242000102996826 58.9900016784668,-4.242000102996826 58.9900016784668,-4.242000102996826 C59.15299987792969,-1.5230000019073486 59.316001892089844,-0.2720000147819519 59.316001892089844,0 C59.316001892089844,0 67.03800201416016,0 67.03800201416016,0 C67.03800201416016,-0.7070000171661377 66.71199798583984,-3.9700000286102295 66.71199798583984,-6.689000129699707 C66.71199798583984,-6.689000129699707 66.71199798583984,-20.121000289916992 66.71199798583984,-20.121000289916992 C66.71199798583984,-26.591999053955078 61.382999420166016,-29.475000381469727 55.29199981689453,-29.475000381469727 C48.71200180053711,-29.475000381469727 43.38199996948242,-26.320999145507812 43.38199996948242,-20.77400016784668 C43.38199996948242,-20.77400016784668 43.38199996948242,-19.250999450683594 43.38199996948242,-19.250999450683594 C43.38199996948242,-19.250999450683594 50.832000732421875,-19.250999450683594 50.832000732421875,-19.250999450683594 C50.832000732421875,-19.250999450683594 50.832000732421875,-20.39299964904785 50.832000732421875,-20.39299964904785 C50.832000732421875,-22.132999420166016 51.9739990234375,-23.711000442504883 54.529998779296875,-23.711000442504883 C57.03200149536133,-23.711000442504883 58.33700180053711,-22.459999084472656 58.33700180053711,-20.447999954223633 C58.33700180053711,-20.447999954223633 58.33700180053711,-17.29400062561035 58.33700180053711,-17.29400062561035 C58.33700180053711,-17.29400062561035 55.34600067138672,-17.29400062561035 55.34600067138672,-17.29400062561035 C49.79899978637695,-17.29400062561035 42.62099838256836,-14.899999618530273 42.62099838256836,-7.7220001220703125 C42.62099838256836,-2.065999984741211 46.319000244140625,0.5979999899864197 50.77799987792969,0.5979999899864197z"></path></g><g opacity="1" transform="matrix(1,0,0,1,0,0)"><path fill="rgb(255,255,255)" fill-opacity="1" d=" M3.263000011444092,0 C3.263000011444092,0 11.14799976348877,0 11.14799976348877,0 C11.14799976348877,0 11.14799976348877,-26.974000930786133 11.14799976348877,-26.974000930786133 C11.14799976348877,-26.974000930786133 11.312000274658203,-26.974000930786133 11.312000274658203,-26.974000930786133 C11.312000274658203,-26.974000930786133 17.783000946044922,-8.918999671936035 17.783000946044922,-8.918999671936035 C17.783000946044922,-8.918999671936035 23.711000442504883,-8.918999671936035 23.711000442504883,-8.918999671936035 C23.711000442504883,-8.918999671936035 30.128000259399414,-27.027999877929688 30.128000259399414,-27.027999877929688 C30.128000259399414,-27.027999877929688 30.23699951171875,-27.027999877929688 30.23699951171875,-27.027999877929688 C30.23699951171875,-27.027999877929688 30.23699951171875,0 30.23699951171875,0 C30.23699951171875,0 38.12200164794922,0 38.12200164794922,0 C38.12200164794922,0 38.12200164794922,-38.775001525878906 38.12200164794922,-38.775001525878906 C38.12200164794922,-38.775001525878906 27.299999237060547,-38.775001525878906 27.299999237060547,-38.775001525878906 C27.299999237060547,-38.775001525878906 21.155000686645508,-22.07900047302246 21.155000686645508,-22.07900047302246 C21.155000686645508,-22.07900047302246 20.992000579833984,-22.07900047302246 20.992000579833984,-22.07900047302246 C20.992000579833984,-22.07900047302246 14.845999717712402,-38.775001525878906 14.845999717712402,-38.775001525878906 C14.845999717712402,-38.775001525878906 3.263000011444092,-38.775001525878906 3.263000011444092,-38.775001525878906 C3.263000011444092,-38.775001525878906 3.263000011444092,0 3.263000011444092,0z"></path></g></g></g></svg>